<?xml version="1.0" encoding="utf-8"?>
<!-- Generator: Adobe Illustrator 26.0.0, SVG Export Plug-In . SVG Version: 6.00 Build 0)  -->
<svg version="1.1" id="Layer_1" xmlns="http://www.w3.org/2000/svg" xmlns:xlink="http://www.w3.org/1999/xlink" x="0px" y="0px"
	 viewBox="0 0 683 849.6" style="enable-background:new 0 0 683 849.6;" xml:space="preserve">
<style type="text/css">
	.st0{fill:#16DE45;}
	.st1{fill:#FF4242;}
	.st2{fill:none;stroke:#FFFFFF;stroke-width:1.32;stroke-miterlimit:10;}
	.st3{fill:none;stroke:#FFFFFF;stroke-width:1.3201;stroke-miterlimit:10.0005;}
	.st4{fill:#FDD6A2;}
	.st5{fill:#4CA2FD;stroke:#000000;stroke-width:0.52;stroke-linecap:round;stroke-linejoin:round;}
	.st6{fill:#FDB748;stroke:#000000;stroke-width:0.52;stroke-linecap:round;stroke-linejoin:round;}
	.st7{opacity:0.1;}
	.st8{fill:url(#SVGID_1_);}
	.st9{opacity:0.3;}
	.st10{fill:#5B5B5B;}
	.st11{fill:#A9D7FD;}
	.st12{fill:none;stroke:#000000;stroke-width:0.83;stroke-linecap:round;stroke-linejoin:round;}
	.st13{fill:#FFFFFF;stroke:#000000;stroke-width:0.83;stroke-linecap:round;stroke-linejoin:round;}
	.st14{stroke:#000000;stroke-width:0.83;stroke-linecap:round;stroke-linejoin:round;}
	.st15{clip-path:url(#SVGID_00000155836131198798298310000001051142146697551786_);}
	.st16{fill:#68364B;stroke:#000000;stroke-width:0.83;stroke-linecap:round;stroke-linejoin:round;}
	.st17{fill:#FDB4CE;stroke:#000000;stroke-width:0.83;stroke-linecap:round;stroke-linejoin:round;}
	.st18{fill:#FDD6A2;stroke:#000000;stroke-width:0.83;stroke-linecap:round;stroke-linejoin:round;}
	.st19{fill:#A9D7FD;stroke:#000000;stroke-width:0.83;stroke-linecap:round;stroke-linejoin:round;}
	.st20{clip-path:url(#SVGID_00000045591818539501597260000002776880501236741521_);}
	.st21{fill:#FCCEB8;stroke:#000000;stroke-width:0.83;stroke-miterlimit:10;}
	.st22{fill:none;stroke:#000000;stroke-width:0.83;stroke-miterlimit:10;}
	.st23{fill:#16DE45;stroke:#000000;stroke-width:0.83;stroke-linecap:round;stroke-linejoin:round;}
	.st24{fill:#352D35;stroke:#000000;stroke-width:0.83;stroke-linecap:round;stroke-linejoin:round;}
	.st25{clip-path:url(#SVGID_00000080194277016670784270000015235906985579248010_);}
	.st26{fill:#6B6B6B;}
	.st27{fill:#4CA2FD;stroke:#000000;stroke-width:0.83;stroke-linecap:round;stroke-linejoin:round;}
	.st28{clip-path:url(#SVGID_00000138560489031517531200000015664369002880886938_);}
	.st29{fill:#0C8F2B;stroke:#000000;stroke-width:0.83;stroke-linecap:round;stroke-linejoin:round;}
	.st30{fill:#FD6693;stroke:#000000;stroke-width:0.83;stroke-linecap:round;stroke-linejoin:round;}
	.st31{clip-path:url(#SVGID_00000156552360873991974010000012803999509333420688_);}
	.st32{fill:#FDB748;stroke:#000000;stroke-width:0.83;stroke-linecap:round;stroke-linejoin:round;}
	.st33{fill:#FCCEB8;}
	.st34{fill:#1BAD39;stroke:#000000;stroke-width:0.83;stroke-linecap:round;stroke-linejoin:round;}
	.st35{opacity:7.000000e-02;fill:#FFFFFF;enable-background:new    ;}
	.st36{fill:#A5A8A5;}
	.st37{fill:#FFFFFF;}
</style>
<path class="st0" d="M-227.3,704.5v145.1H861.9L483.5,586.8c-12.1-8.4-27-11.6-41.5-8.8L-227.3,704.5z"/>
<path class="st1" d="M-105,242.8L76.6,350.6c6.5,3.8,8.8,12.1,5.4,18.9l-4.6,9.1c-3.7,7-12.3,9.8-19.3,6.2c-0.1-0.1-0.3-0.1-0.5-0.3
	l-184.9-105.2c-6.9-4-9.2-12.7-5.4-19.5c0.1-0.4,0.4-0.7,0.7-1.1l7.9-11.6C-119.9,240.9-111.5,239-105,242.8z"/>
<path class="st2" d="M887.7,473l-58-70.3c-3.4-4.2-9.8-4.9-14-1.3c-1.6,1.3-2.6,2.9-3.2,4.9l-6.9,23.5c-1.6,5.3-7.1,8.2-12.3,6.6
	c-1.7-0.5-3.2-1.5-4.4-2.6l-35.2-37.3c-3.8-4-10-4.1-14-0.4c-0.8,0.8-1.5,1.6-2,2.5l-8.4,15.8c-2.6,4.9-8.6,6.6-13.5,4.1
	c-0.7-0.3-1.2-0.7-1.7-1.2l-56.4-47.3"/>
<polygon class="st2" points="-25.4,763.6 -180.2,607.7 -215.8,644.9 -60.6,801.3 -11,813.7 "/>
<line class="st2" x1="-33.3" y1="768.4" x2="-60.6" y2="801.3"/>
<line class="st2" x1="-38.4" y1="774.6" x2="-192.7" y2="620.8"/>
<line class="st2" x1="-49.8" y1="787.6" x2="-137.5" y2="700"/>
<path class="st2" d="M-15.1,799.6c0,0-7,1.6-9.8,10.5"/>
<circle class="st2" cx="-146.2" cy="349.9" r="15"/>
<line class="st2" x1="-146.2" y1="313.7" x2="-146.2" y2="386.3"/>
<line class="st2" x1="-182.4" y1="349.9" x2="-109.8" y2="349.9"/>
<rect x="840.4" y="697.1" transform="matrix(0.2686 -0.9633 0.9633 0.2686 -64.2218 1373.3817)" class="st3" width="63.7" height="63.7"/>
<line class="st2" x1="833" y1="750.9" x2="911.5" y2="706.8"/>
<line class="st2" x1="850.1" y1="689.6" x2="894.3" y2="768.1"/>
<polygon class="st4" points="354.6,380 344.4,388.6 331.1,386.7 327.4,399.2 315,404.6 319,417.3 311.6,428.4 321.9,437 321.7,450 
	335.1,451.9 342.3,462.9 354.6,457.4 366.8,462.9 374.1,451.9 387.4,450 387.3,437 397.6,428.4 390.2,417.3 394,404.6 381.7,399.2 
	378,386.7 364.7,388.6 "/>
<path class="st5" d="M357.5,455.7c0,0,1.6,0.5,1.7,3.3c0.3,2.5-1.2,4.7-3.4,5.5c-2.6,0.8-5-1.5-5-5.4c-0.1-2,1.5-3.7,3.4-3.7
	c0.1,0,0.1,0,0.3,0L357.5,455.7z"/>
<path class="st5" d="M360.5,453.6c0,0,3.3,0.5,3.4,3.3c0.1,2.4-1.7,4.5-7.1,5.1s-10.4-1.1-10.4-5c0-4,7.5-3.7,7.5-3.7L360.5,453.6z"
	/>
<path class="st5" d="M361.2,450.4c0,0,3.7,0.5,4,3.3c0.1,2.4-2,4.5-8,5.1c-6.1,0.7-11.9-1.1-11.9-5c0-4,8.4-3.7,8.4-3.7L361.2,450.4
	z"/>
<path class="st5" d="M361.2,447.4c0,0,3.7,0.5,4,3.3c0.1,2.4-2,4.5-8,5.1c-6.1,0.7-11.9-1.1-11.9-5c0-4,8.4-3.7,8.4-3.7L361.2,447.4
	z"/>
<path class="st6" d="M337.2,424.3c0.3-9.6,8.2-17.3,17.8-17c6.3,0.1,12.1,3.7,15,9.4c3.2,6.1,3,14.5-2.4,19.3
	c-1.1,0.8-2,1.7-2.6,2.9c-0.8,1.7-1.6,9.6-2,11.6v0.1c-2.6,1.5-5.5,2.1-8.4,2.1c-2.6,0.1-5.3-0.5-7.6-1.8c-0.1-1.2-1.2-9.8-2-11.6
	c-0.3-0.5-0.7-1.1-1.1-1.5C340.1,434.1,337.2,429.6,337.2,424.3z"/>
<path d="M364.9,423.6c0,2.4-0.7,4.7-2,6.9c-1.5,1.8-3.2,3.6-5.1,5c-0.9,0.8-1.6,1.8-2,3c-0.4,1.5-0.5,2.9-0.7,4.2
	c-0.4,3.2-0.5,6.3-0.5,9.6c0,0.1,0.3,0.3,0.4,0.3c0.1,0,0.3-0.1,0.3-0.3c0-3.2,0.1-6.5,0.5-9.6c0.1-1.6,0.4-3.2,0.8-4.6
	c0.7-1.3,1.7-2.4,2.9-3.3c1.7-1.3,3.3-3,4.5-4.9c1.1-2,1.7-4.2,1.7-6.5c0-0.1-0.1-0.4-0.4-0.4C365,423.2,364.9,423.5,364.9,423.6
	L364.9,423.6z"/>
<path d="M343.9,423.6c0,2.2,0.5,4.5,1.7,6.5c1.2,1.8,2.6,3.6,4.5,4.9c1.2,0.8,2.2,2,2.9,3.3c0.5,1.5,0.8,3,0.8,4.6
	c0.4,3.2,0.5,6.3,0.5,9.6c0,0.1,0.3,0.3,0.4,0.3c0.1,0,0.3-0.1,0.3-0.3c0-3.2-0.1-6.5-0.5-9.6c-0.1-1.5-0.3-2.9-0.7-4.2
	c-0.4-1.2-1.1-2.2-2-3c-2-1.5-3.7-3.2-5.1-5c-1.3-2-2.1-4.4-2-6.9c0-0.1-0.1-0.4-0.4-0.4C344.1,423.2,343.9,423.5,343.9,423.6
	L343.9,423.6z"/>
<path d="M365.4,422.2c-0.3-1.2-1.1-2.1-2.1-2.6c-1.2-0.1-2.4,0.4-2.9,1.5c-0.7,1.1-1.1,2.4-1.2,3.7c0,0.8-0.1,2.5,1.1,2.6
	c1.2,0.1,1.8-0.9,2-1.8c0-1.5-0.5-2.9-1.5-4.1c-0.7-1.1-1.7-1.6-2.9-1.6c-1.3,0.1-2.6,0.8-3.6,1.8c-0.8,1.2-1.3,2.5-1.3,4
	c0,0.9-0.1,2.5,1.2,2.4c2.5,0,1.5-4.7,0.8-6.1c-0.5-1.1-1.5-2-2.6-2.2c-1.2-0.1-2.4,0.5-3,1.5c-0.8,1.2-1.3,2.6-1.3,4.1
	c0,0.9,0.1,2.5,1.3,2.6c1.2,0.1,2.1-1.3,2.1-2.4c0-1.7-0.5-3.3-1.6-4.5c-0.7-1.2-1.7-1.8-3-2c-1.5,0-2.2,2-2.5,3.3
	c-0.1,0.4,0.5,0.7,0.7,0.1c0.1-1.1,0.5-2,1.3-2.6c0.9-0.5,2,0.4,2.5,1.1c1.2,1.3,2.2,3.4,1.8,5.1c-0.1,0.4-0.4,1.1-0.9,1.2
	c-0.8,0.1-0.9-0.7-1.1-1.2c-0.1-1.1,0.1-2,0.5-2.9c0.7-1.8,2.5-3.8,4.5-2c1.1,1.2,1.7,2.8,1.6,4.4c0,0.4,0,0.9-0.3,1.3
	c-0.1,0.3-0.8,0.7-1.1,0.3c-0.1-0.3-0.1-0.4-0.1-0.7c0-1.1,0.1-2,0.4-2.9c0.7-1.8,2.5-3,4.5-2.8c1.6,0.4,2.9,3,2.9,4.6
	c0,0.7-0.3,1.5-1.1,1.3c-0.5,0-0.4-0.1-0.5-0.7c0-0.3,0-0.5,0-0.9c0-0.9,0.1-1.8,0.5-2.6c0.4-0.9,1.1-2.1,2.1-2.2
	c1.1-0.1,2,1.2,2.2,2.1c0.1,0.4,0.8,0.3,0.7-0.1L365.4,422.2z"/>
<path d="M356.4,433.1c-0.5,0.7-0.9,1.3-1.3,2.1c-0.1,0.1,0,0.4,0.1,0.5c0.1,0.1,0.4,0,0.5-0.1l0,0c0.4-0.7,0.8-1.5,1.3-2.1
	c0.1-0.1,0-0.4-0.1-0.4l0,0C356.8,432.9,356.5,433,356.4,433.1L356.4,433.1z"/>
<path d="M352.7,433.4l0.9,1.7c0.1,0.1,0.3,0.3,0.5,0.1c0.1-0.1,0.3-0.3,0.1-0.5l-0.9-1.7c-0.1-0.1-0.3-0.3-0.5-0.1
	C352.6,433,352.6,433.3,352.7,433.4L352.7,433.4z"/>
<path d="M355.1,410.8c-2.6-0.1-5.3,0.4-7.5,1.8c-0.1,0.1-0.1,0.4,0,0.5c0.1,0.1,0.3,0.1,0.4,0.1c2.1-1.3,4.6-1.8,7.3-1.7
	C355.6,411.5,355.6,410.8,355.1,410.8z"/>
<path d="M360.2,412l-1.3-0.5c-0.1,0-0.1,0-0.3,0c-0.1,0-0.1,0.1-0.1,0.1c0,0.1,0,0.1,0,0.3c0,0.1,0.1,0.1,0.1,0.1l1.3,0.5
	c0.1,0,0.1,0,0.3,0c0.1,0,0.1-0.1,0.1-0.3c0-0.1,0-0.1,0-0.3C360.4,412.2,360.4,412,360.2,412L360.2,412z"/>
<path class="st6" d="M373.4,435.9l9.1,6.3c-0.9,1.8-2.4,3.3-4.1,4.2l-6.9-8.2C372.2,437.6,372.9,436.7,373.4,435.9z"/>
<path class="st6" d="M380.2,403.7l-9.1,6.2c-0.5-0.9-1.3-1.8-2.2-2.4l7-8.2C377.9,399.8,379.6,401.5,380.2,403.7z"/>
<path class="st6" d="M376.3,422.6c0.1,0.5,0.1,1.2,0,1.7l5.9,0.3c0.3-0.9,0.3-1.7,0-2.6L376.3,422.6z"/>
<path class="st6" d="M334.3,435.9l-9.1,6.3c0.9,1.8,2.4,3.3,4.1,4.2l6.9-8.2C335.4,437.6,334.8,436.7,334.3,435.9z"/>
<path class="st6" d="M327.7,403.7l9.1,6.2c0.5-0.9,1.3-1.8,2.4-2.4l-7-8.2C329.9,399.8,328.1,401.5,327.7,403.7z"/>
<path class="st6" d="M331.5,422.6c-0.1,0.5-0.1,1.2,0,1.7l-5.9,0.3c-0.3-0.9-0.3-1.7,0-2.6L331.5,422.6z"/>
<path class="st6" d="M353.5,402.4c0.5-0.1,1.2-0.1,1.8,0l0.3-5.8c-0.9-0.3-1.7-0.3-2.6,0L353.5,402.4z"/>
<g class="st7">
	<linearGradient id="SVGID_1_" gradientUnits="userSpaceOnUse" x1="512.8154" y1="719.0638" x2="838.6739" y2="719.0638">
		<stop  offset="0" style="stop-color:#FFFFFF"/>
		<stop  offset="0.17" style="stop-color:#FCFCFC"/>
		<stop  offset="0.3" style="stop-color:#F2F2F2"/>
		<stop  offset="0.42" style="stop-color:#E1E1E1"/>
		<stop  offset="0.53" style="stop-color:#C9C9C9"/>
		<stop  offset="0.64" style="stop-color:#ABABAB"/>
		<stop  offset="0.75" style="stop-color:#858585"/>
		<stop  offset="0.85" style="stop-color:#585858"/>
		<stop  offset="0.95" style="stop-color:#262626"/>
		<stop  offset="1" style="stop-color:#070707"/>
	</linearGradient>
	<path class="st8" d="M838.7,786.7V651.9c-18.5-1.5-37.1-0.3-55.3,3.7c-35.7,7.6-69.1,24.3-99.7,44.3c-42.7,27.8-82.2,62.8-131,77.5
		c-13.1,4-26.6,6.3-40,9.4h325.9V786.7z"/>
</g>
<g class="st9">
	<path class="st10" d="M358.9-6.1h-2.1c9.8,122.1,62.8,236.6,149.4,323.2c91.9,92.2,212.3,145.3,341.2,151.1v-2.1
		C589.2,454.1,380.2,250.4,358.9-6.1z"/>
</g>
<polygon class="st11" points="27.1,503.9 8.8,551.8 -34.9,523.6 -20.7,572.8 -73.1,575 -32.1,606.8 -73.1,638.6 -20.7,640.7 
	-34.9,690 8.8,661.8 27.1,709.7 45.5,661.8 89.1,690 75,640.7 127.4,638.6 86.3,606.8 127.4,575 75,572.8 89.1,523.6 45.5,551.8 "/>
<rect x="-164.5" y="403.9" class="st12" width="115.8" height="113"/>
<rect x="-56.5" y="396.2" class="st13" width="15.8" height="15.4"/>
<rect x="-56.5" y="509.1" class="st13" width="15.8" height="15.4"/>
<rect x="-172.4" y="509.1" class="st13" width="15.8" height="15.4"/>
<rect x="-172.4" y="396.2" class="st13" width="15.8" height="15.4"/>
<path class="st14" d="M-110.3,404.4c0,2.2,1.7,4.1,4,4.2c2.2,0,4.1-1.7,4.2-4c0-2.2-1.7-4.1-4-4.2h-0.1
	C-108.3,400.3-110.2,402.1-110.3,404.4C-110.3,404.3-110.3,404.4-110.3,404.4z"/>
<path class="st14" d="M-110.3,516.9c0,2.2,1.7,4.1,4,4.2c2.2,0,4.1-1.7,4.2-4c0-2.2-1.7-4.1-4-4.2h-0.1
	C-108.3,512.9-110.2,514.6-110.3,516.9C-110.3,516.7-110.3,516.9-110.3,516.9z"/>
<path class="st14" d="M-52.7,460.4c0,2.2,1.7,4.1,4,4.2c2.2,0,4.1-1.7,4.2-4c0-2.2-1.7-4.1-4-4.2h-0.1
	C-50.8,456.3-52.7,458.2-52.7,460.4z"/>
<path class="st14" d="M-168.4,460.4c0,2.2,1.7,4.1,4,4.2c2.2,0,4.1-1.7,4.2-4c0.1-2.2-1.7-4.1-4-4.2h-0.1
	C-166.6,456.3-168.4,458.2-168.4,460.4z"/>
<path class="st14" d="M61.4,741.1h329.8c2.6,0,5.3-0.7,7.6-1.8c5-2.6,8-7.8,8-13.5V548c0-4.1-1.7-8-4.6-10.8c-3-2.9-7-4.5-11.1-4.5
	H61.4c-3.6,0-7.1,1.2-10,3.4c-3.6,2.9-5.8,7.3-5.8,11.9v177.8c0,4.1,1.7,8,4.6,10.8C53.4,739.5,57.3,741.1,61.4,741.1z"/>
<path class="st13" d="M71.7,731h329.8c2.6,0,5.3-0.7,7.6-1.8c5-2.6,8-7.8,8-13.5V538c0-4.1-1.7-8-4.6-10.8c-3-2.9-7-4.5-11.1-4.5
	H71.8c-3.6,0-7.1,1.2-10,3.4C58.1,529,56,533.4,56,538v177.6c0,4.1,1.7,8,4.6,10.8C63.7,729.5,67.6,731,71.7,731z"/>
<g>
	<g>
		<defs>
			<path id="SVGID_00000159427480603759874360000016428364938376919435_" d="M71.7,731h329.8c2.6,0,5.3-0.7,7.6-1.8
				c5-2.6,8-7.8,8-13.5V538c0-4.1-1.7-8-4.6-10.8c-3-2.9-7-4.5-11.1-4.5H71.8c-3.6,0-7.1,1.2-10,3.4C58.1,529,56,533.4,56,538v177.6
				c0,4.1,1.7,8,4.6,10.8C63.7,729.5,67.6,731,71.7,731z"/>
		</defs>
		<clipPath id="SVGID_00000004542381736577376490000010178713059286693275_">
			<use xlink:href="#SVGID_00000159427480603759874360000016428364938376919435_"  style="overflow:visible;"/>
		</clipPath>
		<g style="clip-path:url(#SVGID_00000004542381736577376490000010178713059286693275_);">
			<rect x="53.4" y="548.3" class="st13" width="32" height="191.9"/>
			<rect x="53.4" y="548.3" class="st13" width="32" height="28.9"/>
			<rect x="53.4" y="705.4" class="st13" width="32" height="25.5"/>
			<path class="st13" d="M63.5,566.9l7.1-7.9l7.1,7.9"/>
			<path class="st13" d="M63.5,714.7l7.1,7.9l7.1-7.9"/>
			<rect x="52.1" y="514.8" class="st16" width="372.3" height="33.5"/>
			<path class="st17" d="M103.3,535.2c0,2.4,1.8,4.4,4.2,4.4c2.4,0,4.4-1.8,4.4-4.2c0-2.4-1.8-4.4-4.2-4.4h-0.1
				C105.3,531,103.3,532.8,103.3,535.2L103.3,535.2z"/>
			<path class="st17" d="M85.8,535.2c0,2.4,1.8,4.4,4.2,4.4s4.4-1.8,4.4-4.2c0-2.4-1.8-4.4-4.2-4.4H90
				C87.7,531,85.8,532.8,85.8,535.2L85.8,535.2z"/>
			<path class="st17" d="M68.1,535.2c0,2.4,1.8,4.4,4.2,4.4c2.4,0,4.4-1.8,4.4-4.2c0-2.4-1.8-4.4-4.2-4.4h-0.1
				C70.1,531,68.1,532.8,68.1,535.2L68.1,535.2z"/>
			<rect x="241.9" y="562.4" class="st18" width="124.1" height="106.3"/>
			<rect x="241.9" y="682.5" class="st12" width="124.1" height="4.7"/>
			<rect x="241.9" y="696.6" class="st12" width="124.1" height="4.7"/>
			<rect x="241.9" y="710.6" class="st12" width="124.1" height="4.7"/>
			<polyline class="st12" points="366,562.2 241.9,668.5 366,668.5 241.9,562.2 			"/>
			<rect x="102.7" y="562.4" class="st18" width="124.1" height="106.3"/>
			<rect x="102.7" y="682.5" class="st12" width="124.1" height="4.7"/>
			<rect x="102.7" y="696.6" class="st12" width="124.1" height="4.7"/>
			<rect x="102.7" y="710.6" class="st12" width="124.1" height="4.7"/>
			<polyline class="st12" points="226.8,562.2 102.7,668.5 226.8,668.5 102.7,562.2 			"/>
		</g>
	</g>
</g>
<path class="st12" d="M71.7,731h329.8c2.6,0,5.3-0.7,7.6-1.8c5-2.6,8-7.8,8-13.5V538c0-4.1-1.7-8-4.6-10.8c-3-2.9-7-4.5-11.1-4.5
	H71.8c-3.6,0-7.1,1.2-10,3.4C58.1,529,56,533.4,56,538v177.6c0,4.1,1.7,8,4.6,10.8C63.7,729.5,67.6,731,71.7,731z"/>
<path class="st14" d="M501.2,622.9h62.9c2.6,0,5.3-0.8,7.5-2.5c3-2.2,4.9-5.8,4.9-9.6V336.9c0-3.2-1.3-6.3-3.6-8.6
	c-2.4-2.2-5.4-3.6-8.7-3.6h-62.9c-3.3,0-6.3,1.3-8.7,3.6c-2.2,2.2-3.6,5.3-3.6,8.6v274c0,3.2,1.3,6.3,3.6,8.6
	C494.7,621.7,497.9,622.9,501.2,622.9z"/>
<path class="st13" d="M508.6,615.6h62.9c2.6,0,5.3-0.8,7.5-2.5c3-2.2,4.9-5.8,4.9-9.6V329.6c0-3.2-1.3-6.3-3.6-8.6
	c-2.4-2.2-5.4-3.6-8.7-3.6h-63c-3.3,0-6.3,1.2-8.7,3.6c-2.2,2.2-3.6,5.3-3.6,8.6v274c0,3.2,1.3,6.3,3.6,8.6
	C502.3,614.5,505.3,615.6,508.6,615.6z"/>
<line class="st12" x1="583.9" y1="392.6" x2="496.2" y2="392.6"/>
<line class="st12" x1="583.9" y1="467.7" x2="496.2" y2="467.7"/>
<line class="st12" x1="583.9" y1="541.3" x2="496.2" y2="541.3"/>
<path class="st13" d="M536.9,349.5l25.6,18.2c1.6,1.1,2.5,2.9,2.5,4.9c0,0.4-0.1,0.8-0.1,1.1c1.3,1.2,3.4,3.3,2.4,4.4
	c-1.1,1.1-3.2-0.1-4.6-1.1c-2.1,1.6-5,1.6-7.1,0L530.5,359L536.9,349.5z"/>
<path class="st19" d="M530.6,344.5c0,0-12-11.6-16.7-5c-5.5,7.5,10.2,15.4,10.2,15.4L530.6,344.5z"/>
<path class="st19" d="M537.7,348.1l-8.3,12c-2,2.8-5.8,3.6-8.7,1.7l0,0c-1.3-0.8-2.2-2.1-2.6-3.6c-0.5-1.7-0.1-3.6,0.8-5l8.3-12.1
	c2-2.9,5.9-3.6,8.8-1.6l0,0c1.1,0.7,1.8,1.7,2.2,2.8C539.2,344.2,538.9,346.4,537.7,348.1z"/>
<path class="st18" d="M519.4,448.7l12.5-40.4h-2.2v-4.5h20.8v4.5H548l12.8,40.4h5v4.5H545v-4.5h3.2l-2.6-11.9h-10.2l-2.8,11.7h4.1
	v4.5h-20.8v-4.4H519.4z M544.1,427.5l-2.4-9.6h-2.6l-2.6,9.6H544.1z"/>
<polygon class="st17" points="528.4,485.5 562,511.5 550.9,525.3 517.2,499.6 "/>
<path class="st13" d="M528.4,485.5l-4.7-3.6c-0.5-0.4-1.1-0.7-1.6-0.8c-1.8-0.5-3.7,0.1-4.9,1.6l-5.5,6.9c-0.8,0.9-1.1,2.1-0.9,3.3
	c0.1,1.2,0.8,2.2,1.7,3l4.7,3.6L528.4,485.5z"/>
<path class="st13" d="M562,511.5l7.1,13.8c0.4,0.7,0.3,1.5-0.1,2c-0.4,0.7-1.2,0.9-2,0.8l-16.1-2.8L562,511.5z"/>
<path class="st17" d="M562,527.3l4.6-6.7l2.6,5c0.4,0.7,0.3,1.3-0.1,2s-1.2,0.9-2,0.8L562,527.3z"/>
<rect x="520.9" y="557.6" class="st13" width="38" height="37.1"/>
<rect x="553.6" y="553.4" class="st19" width="10.2" height="9.9"/>
<rect x="515.7" y="553.4" class="st19" width="10.2" height="9.9"/>
<rect x="553.6" y="588.7" class="st19" width="10.2" height="9.9"/>
<rect x="515.7" y="588.7" class="st19" width="10.2" height="9.9"/>
<path class="st14" d="M-67.8,374.6h169.1c3.3,0,6.5-1.1,9-3.2c3.2-2.5,5-6.5,5-10.5V150.4c0-3.7-1.5-7.1-4.1-9.8
	c-2.6-2.5-6.2-4-9.9-4H-67.8c-3.3,0-6.5,1.1-9,3.2c-3.2,2.6-5,6.5-5,10.5v210.5c0,3,1.1,5.9,2.9,8.3
	C-76.3,372.7-72.2,374.7-67.8,374.6z"/>
<path class="st13" d="M-57.9,365H111c3.3,0,6.5-1.1,9-3.2c3.2-2.5,5.1-6.5,5.1-10.5V140.8c0-3.7-1.5-7.1-4.1-9.8
	c-2.6-2.5-6.2-4-9.9-4H-57.9c-3.3,0-6.5,1.1-9,3.2c-3.2,2.5-5,6.5-5,10.5v210.5c0,3,1.1,5.9,2.9,8.4
	C-66.4,363.1-62.3,365.1-57.9,365z"/>
<g>
	<g>
		<defs>
			<path id="SVGID_00000055694419310658432440000008388365653035060867_" d="M-57.9,365H111c3.3,0,6.5-1.1,9-3.2
				c3.2-2.5,5.1-6.5,5.1-10.5V140.8c0-3.7-1.5-7.1-4.1-9.8c-2.6-2.5-6.2-4-9.9-4H-57.9c-3.3,0-6.5,1.1-9,3.2c-3.2,2.5-5,6.5-5,10.5
				v210.5c0,3,1.1,5.9,2.9,8.4C-66.4,363.1-62.3,365.1-57.9,365z"/>
		</defs>
		<clipPath id="SVGID_00000164489203437578039090000003604310978126366138_">
			<use xlink:href="#SVGID_00000055694419310658432440000008388365653035060867_"  style="overflow:visible;"/>
		</clipPath>
		<g style="clip-path:url(#SVGID_00000164489203437578039090000003604310978126366138_);">
			<rect x="-83.5" y="117.7" class="st16" width="220" height="34.2"/>
			<ellipse class="st19" cx="-17.8" cy="139.6" rx="4.5" ry="4.4"/>
			<path class="st19" d="M-40.8,139.6c0,2.5,1.8,4.5,4.4,4.6c2.5,0,4.5-1.8,4.6-4.4c0-2.5-1.8-4.5-4.4-4.6h-0.1
				C-38.7,135.1-40.7,137.1-40.8,139.6L-40.8,139.6z"/>
			<path class="st19" d="M-59.1,139.6c0,2.5,1.8,4.5,4.4,4.6c2.5,0,4.5-1.8,4.6-4.4c0-2.5-1.8-4.5-4.4-4.6h-0.1
				C-57,135.1-59,137.1-59.1,139.6L-59.1,139.6z"/>
		</g>
	</g>
</g>
<path class="st12" d="M-57.9,365H111c3.3,0,6.5-1.1,9-3.2c3.2-2.5,5.1-6.5,5.1-10.5V140.8c0-3.7-1.5-7.1-4.1-9.8
	c-2.6-2.5-6.2-4-9.9-4H-57.9c-3.3,0-6.5,1.1-9,3.2c-3.2,2.5-5,6.5-5,10.5v210.5c0,3,1.1,5.9,2.9,8.4
	C-66.4,363.1-62.3,365.1-57.9,365z"/>
<rect x="30.2" y="167.9" class="st19" width="75.8" height="74"/>
<polygon class="st17" points="106,216.5 84,190.9 64.1,216.5 48.2,202.7 30.2,217.9 30.2,241.9 106,241.9 "/>
<ellipse class="st18" cx="48.2" cy="186.3" rx="9.4" ry="9.1"/>
<rect x="-56.6" y="167.7" class="st12" width="74.6" height="7.1"/>
<rect x="-56.6" y="184.7" class="st12" width="74.6" height="7.1"/>
<rect x="-56.6" y="201.6" class="st12" width="74.6" height="7.1"/>
<rect x="-56.6" y="218.6" class="st12" width="74.6" height="7.1"/>
<rect x="-56.6" y="235.5" class="st12" width="74.6" height="7.1"/>
<rect x="-56.6" y="331.1" class="st12" width="162.6" height="18.2"/>
<line class="st12" x1="-30.8" y1="331.1" x2="-30.8" y2="349.3"/>
<rect x="-56.6" y="253.7" class="st18" width="162.6" height="65"/>
<line class="st12" x1="106" y1="318.7" x2="-56.6" y2="253.7"/>
<line class="st12" x1="106" y1="253.7" x2="-56.6" y2="318.7"/>
<path class="st21" d="M404.5,420.3c13.5-12.7,21.8-31.5,28.9-50.8c7.9-21.2,16.2-52.2,19-62.8c10.4-2.6,19.9-7.8,28-14.9
	c11.9-10.8,12.1-15.7,9.4-19.9c-3.2-4.9-9.4-0.3-9.4-0.3s8.4-8.6,7-14.4c-1.1-4.4-6.5-5.5-10.8-2.4c1.8-3.3,0.7-7.4-2.6-9.2l0,0
	c-5-3.2-11.7,4.6-11.7,4.6s-2.5-5.8-7.9-5.1c-10.8,1.2-11.6,13.7-32.7,22.8c-4.2-2.2-8.2-5-11.6-8.3c-4.2-4.1-12.4,0.3-10,7.6
	c2.4,7.4,11.2,18.6,11.2,18.6c-7,11.9-41.7,69.2-41.7,69.2l-14.6-32.3c-4.5,2.2-50.5,19.6-50.5,19.6s14.4,49.2,20.7,66.7
	c6.3,17.5,30.3,33.6,59.7,23.3C392.2,429.8,398.9,425.7,404.5,420.3z"/>
<path class="st22" d="M369.3,355.1c-4,5.7-7.3,11.6-9.9,17.9"/>
<path class="st22" d="M480.5,271.7c-4.1,5-8.8,9.4-14.1,13.1"/>
<path class="st22" d="M476.7,255c0,0-4.9,7.9-20.8,20.6"/>
<path class="st22" d="M462.2,250.4c0,0-2.6,3.8-17.5,17"/>
<path class="st22" d="M421.6,268c0,0,16.1,0,20.4,12.4"/>
<path class="st14" d="M356.9,327.6c0,0-8.3,14.5-20.4,21.9c-12.1,7.4-21.8,8.6-21.8,8.6l-3.8-12.3
	C310.9,345.8,346.1,322.2,356.9,327.6z"/>
<path class="st23" d="M313.4,267c0,0,20,4.1,30.6,20.8c7.9,12.5,17,35.6,17,35.6c-12.9,14.1-31.1,22.3-50.1,22.4
	c0,0-23.1-59.9-19.4-72.3c1.2-4.1,3.7-9.9,7.3-9.4C303.7,264.9,308.5,265.8,313.4,267z"/>
<path class="st12" d="M355.4,309.7c0,0-12.7,21.8-49.5,22.4"/>
<path class="st24" d="M518.7,627.4c2.2,5.3,4.9,10.3,7.6,15.2c3.4,5.3,16.4,8.2,27.4,9.6c11.1,1.5,32.3,5.9,33.9,28.6
	c1.6,22.7-14.2,35.6-36.4,39s-51.7,2.2-65,0.4c-13.3-1.8-28-19.3-27.3-36c0.4-9.8-0.1-19.5-1.6-29.1c0,0,33.4-10.4,41.1-14.9
	S518.7,627.4,518.7,627.4z"/>
<g>
	<g>
		<defs>
			<path id="SVGID_00000043442771327993304860000001197666412436008091_" d="M518.7,627.4c2.2,5.3,4.9,10.3,7.6,15.2
				c3.4,5.3,16.4,8.2,27.4,9.6c11.1,1.5,32.3,5.9,33.9,28.6c1.6,22.7-14.2,35.6-36.4,39s-51.7,2.2-65,0.4c-13.3-1.8-28-19.3-27.3-36
				c0.4-9.8-0.1-19.5-1.6-29.1c0,0,33.4-10.4,41.1-14.9S518.7,627.4,518.7,627.4z"/>
		</defs>
		<clipPath id="SVGID_00000139266751442845212940000005975258030859346360_">
			<use xlink:href="#SVGID_00000043442771327993304860000001197666412436008091_"  style="overflow:visible;"/>
		</clipPath>
		<g style="clip-path:url(#SVGID_00000139266751442845212940000005975258030859346360_);">
			<path class="st26" d="M454,692.7c6.2-2.1,12.9-2,18.9,0.7c2.1,0.9,4.9,2,6.3,0.3c0.8-1.2,0.8-2.8-0.1-4c-0.9-1.1-2.1-2-3.4-2.5
				c5.5,0.1,10.7,2.4,15.6,4.7c1.7,0.9,3.7,1.6,5.7,1.8c2,0.3,4-0.8,4.9-2.6c0.5-1.6,0.1-3.3-1.1-4.5c-1.2-1.2-2.6-2.1-4.2-2.6
				c5.9-0.1,11.3,3,16.7,5.3c1.6,0.8,3.3,1.1,5,0.7c2.1-0.9,3.2-3,2.8-5.3c-0.5-2.1-2-4-4-5s-4-2-6.1-2.6c-7.6-3-14.1-8.4-18.7-15.3
				c-4.4-6.9-6.2-15-5-23.2l35.2-17.8c0,0,22.3,18.5,42.2,23.1c19.9,4.6,46.2,26.8,18.5,52.2S475,719.3,465.6,714
				C456.2,708.7,454,692.7,454,692.7z"/>
			<path d="M454.1,693.2c5-1.7,10.5-1.8,15.7-0.4c2.2,0.7,4.4,2,6.6,2.2c1.8,0.4,3.6-0.8,4-2.6c0-0.1,0-0.1,0-0.3
				c0.3-2.8-2.2-4.4-4.4-5.5l-0.3,1.1c6.1,0.1,11.3,2.9,16.7,5.3c2.2,1.1,4.7,1.8,7.3,0.9c2.1-0.7,3.3-2.8,3-4.9
				c-0.5-2.9-3.2-4.5-5.8-5.5l-0.1,1.1c3.3,0,6.6,0.8,9.6,2.2c1.6,0.7,3,1.3,4.6,2.1c1.5,0.8,3,1.3,4.6,1.7c2.5,0.8,5.1-0.7,6.1-3.2
				c0.7-2.6-0.3-5.3-2.4-7c-2.4-2.1-5.4-2.9-8.2-4.1c-2.8-1.2-5.4-2.6-7.9-4.5c-5-3.6-9.1-8.3-11.9-13.7c-1.5-2.9-2.5-6.1-3-9.4
				c-0.3-1.6-0.4-3.3-0.4-4.9c0-0.8,0-1.5,0-2.2c0-0.8,0.3-1.7,0.3-2.6c0,0-0.4,0.1,0,0c0.4-0.1,0.4-0.3,0.7-0.4l2.5-1.3l18.1-9.1
				l8.8-4.5c1.6-0.8,3.3-1.5,4.7-2.4c0.1,0,0.1-0.1,0.3-0.1l-0.7-0.1c5.4,4.4,11.1,8.3,17,11.9c5.1,3.2,10.5,5.9,16.1,8.3
				c2.8,1.2,5.7,2.1,8.6,2.9c2.2,0.5,4.6,1.2,6.7,2c9,3.4,17.9,9.8,22.2,18.7c2.1,4.5,2.5,9.5,1.3,14.1c-1.6,6.3-5.9,11.7-10.7,16.2
				c-6.1,5.7-13.7,9.4-21.5,12.1c-9,3.2-18.3,5.4-27.7,6.7c-9.5,1.5-19.1,2.4-28.7,2.6c-8.2,0.3-16.2,0.1-24.4-0.4
				c-2.9-0.3-5.8-0.5-8.7-1.1c-1.8-0.3-3.8-0.7-5.5-1.3c-3.4-1.3-6.1-5-7.9-8.2c-1.8-3.6-3.3-7.4-4.1-11.2c-0.1-0.7-0.3-1.3-0.4-2
				c-0.1-0.7-1.2-0.4-1.1,0.3c0.4,2.5,1.1,4.9,2,7.3c1.5,4.6,3.8,8.7,7.1,12.1c1.7,1.7,3.8,2.9,6.2,3.4c2.4,0.5,4.9,0.9,7.3,1.2
				c7.5,0.8,15.2,1.2,22.7,1.1c9.6-0.1,19.1-0.7,28.6-1.8c9.8-1.1,19.4-3,28.9-5.7c8.2-2.5,16.5-5.7,23.5-10.8
				c4.6-3.3,8.7-7.5,11.7-12.3c3-4.5,4.6-9.9,4.2-15.4c-0.9-10-8.6-17.9-16.7-22.8c-4.2-2.5-8.7-4.5-13.5-5.7
				c-5.9-1.5-11.7-3.7-17.1-6.5c-8.6-4.4-16.6-9.6-24-15.6l-1.2-1.1c-0.1-0.1-0.4-0.3-0.7-0.1l-11.3,5.7l-18.7,9.5l-4.9,2.4
				c-0.1,0-0.3,0.1-0.3,0.1c-0.3,0.3-0.3,0.5-0.4,0.9c-0.1,0.8-0.1,1.6-0.3,2.4c-0.1,3.2,0.1,6.3,0.8,9.4
				c2.6,11.9,11.6,21.5,22.6,26.4c2.9,1.3,6.2,2.1,8.6,4.2c2,1.8,3.3,5.1,1.1,7.4c-1.3,1.1-3,1.2-4.5,0.5c-1.6-0.5-3.2-1.2-4.6-2
				c-2.9-1.5-5.9-2.5-9-3.4c-1.6-0.4-3-0.5-4.6-0.4c-0.3,0-0.5,0.3-0.5,0.5c0,0.3,0.1,0.5,0.4,0.5c1.5,0.5,2.9,1.3,4,2.5
				s1.5,2.8,0.8,4.2c-1.6,2.8-5.4,2-7.8,1.1c-2.9-1.2-5.7-2.6-8.6-3.8s-6.1-1.8-9.1-2c-0.3,0-0.5,0.3-0.5,0.5c0,0.1,0.1,0.4,0.3,0.4
				c1.5,0.5,2.6,1.6,3.4,2.8c0.8,1.1,0.5,2.5-0.5,3.3c-0.1,0-0.1,0.1-0.3,0.1c-1.2,0.3-2.4,0.1-3.4-0.4c-1.3-0.4-2.5-1.1-3.8-1.5
				c-5.5-1.7-11.5-1.7-16.9,0.3C453.1,692.4,453.5,693.4,454.1,693.2z"/>
			<path class="st13" d="M577.2,657.1c0,0,13.6,15.7-3.6,33.9s-72.3,14.5-88.8,12.5c-16.5-2-21.4-12.8-25.7-19.1
				c-4.4-6.3-18.3,0.8-15.8,18.1c2.5,17.3,29.9,33.6,63.7,33.8s70.4,7.3,79.8-21.2C596.2,686.5,604.3,673.4,577.2,657.1z"/>
			<path d="M570.3,650.5c-9,5.8-15.8,14.4-19.5,24.4c-1.1,2.8-1.7,5.8-2.2,8.7c-0.1,0.7,0.9,1.1,1.1,0.3
				c1.6-10.3,6.6-19.8,14.1-26.9c2.2-2.1,4.5-4,7.1-5.5C571.5,651,570.8,650.1,570.3,650.5L570.3,650.5z"/>
			<path d="M560.9,645.1c-4.5,3.6-8.8,7.5-12.7,11.7c-4,4.1-7.3,8.6-10.2,13.3c-1.5,2.6-2.4,5.5-2.5,8.6c0,0.3,0.4,0.5,0.7,0.5
				c0.3,0,0.4-0.3,0.5-0.5c0.1-5.5,3.4-10.3,6.7-14.5c3.4-4.4,7.1-8.6,11.2-12.3c2.2-2.1,4.6-4.2,7.1-6.2
				C562.3,645.3,561.5,644.5,560.9,645.1L560.9,645.1z"/>
			<path d="M547.9,641.9c-8.6,6.3-15.4,14.9-19.8,24.7c-1.2,2.8-2.2,5.5-3,8.4c-0.1,0.3,0.1,0.7,0.4,0.7c0.3,0,0.5-0.1,0.7-0.4
				c2.8-10,8.2-19.3,15.6-26.6c2.1-2.1,4.4-4.1,6.7-5.8C549.1,642.5,548.4,641.6,547.9,641.9z"/>
			<path d="M537.7,640.4c-8.2,4.6-15.2,11.1-20.7,18.6c-1.6,2.2-3,4.5-4.2,6.9c-0.3,0.7,0.7,1.2,0.9,0.5
				c5.7-10.4,14.2-19.1,24.5-25.1c0.3-0.1,0.3-0.5,0.1-0.8C538.3,640.4,538,640.4,537.7,640.4L537.7,640.4z"/>
		</g>
	</g>
</g>
<path class="st12" d="M518.7,627.4c2.2,5.3,4.9,10.3,7.6,15.2c3.4,5.3,16.4,8.2,27.4,9.6c11.1,1.5,32.3,5.9,33.9,28.6
	c1.6,22.7-14.2,35.6-36.4,39s-51.7,2.2-65,0.4c-13.3-1.8-28-19.3-27.3-36c0.4-9.8-0.1-19.5-1.6-29.1c0,0,33.4-10.4,41.1-14.9
	S518.7,627.4,518.7,627.4z"/>
<path class="st27" d="M284.7,450.9c0,0-75.6,27.6-79,30.6c0,0,62.8,47.2,94.2,49.3c52.7,3.6,91.5,13.6,91.5,13.6
	c3.6,9.6,37.6,74.2,37.6,74.2s-3.6,2.1-2.6,8.7c0.9,6.6,11.1,7.9,11.1,7.9s-2.6,3.2-1.5,6.6c2.1,5.7,10,7.3,10,7.3s-6.3,3-0.4,10.2
	c5.9,7.1,23.9,6.7,51.3-7.1c27.4-13.8,32.8-24.5,32.3-30.3c-0.5-5.8-5.3-6.1-5.3-6.1s1.7-5.8-0.5-10.2c-1.3-2.6-3.6-4.7-6.3-5.9
	c2.1-3.7,1.8-8.3-0.7-11.7c-2.9-4-6.9-7-11.5-8.7c0,0-39.8-91.5-67.7-117.9C389.4,415.7,284.7,450.9,284.7,450.9z"/>
<path class="st22" d="M504.8,579.2c0,0,0.1,8.6-19.3,21.1"/>
<path class="st22" d="M428.9,618.7c0,0,7.5,4.1,19.8-0.1"/>
<path class="st22" d="M516.9,599.7c0,0-14.4,19.6-48.4,32.2"/>
<path class="st22" d="M437.3,635.3c4.1,0.9,8.4,1.2,12.7,0.8"/>
<path class="st22" d="M446,649.1c0,0,15,4,39.3-7.1"/>
<path class="st22" d="M523.8,615.8c0,0-1.1,2.6-9.6,9.1"/>
<path class="st24" d="M389.8,686.3c-0.8,5.5-1.2,11.2-1.3,16.9c0.1,6.3,9.6,15.2,18.5,22s24.7,21.2,14,41.5
	c-10.7,20.3-31,23.5-51.7,15.3s-45.5-24-56-32.2s-13.8-30.5-4.5-44.6c5.4-8.2,10-16.7,14-25.7c0,0,34.2,7.8,43.1,7.9
	C374.7,687.6,389.8,686.3,389.8,686.3z"/>
<g>
	<g>
		<defs>
			<path id="SVGID_00000035500656993751039890000002379294058282063515_" d="M389.8,686.3c-0.8,5.5-1.2,11.2-1.3,16.9
				c0.1,6.3,9.6,15.2,18.5,22s24.7,21.2,14,41.5c-10.7,20.3-31,23.5-51.7,15.3s-45.5-24-56-32.2s-13.8-30.5-4.5-44.6
				c5.4-8.2,10-16.7,14-25.7c0,0,34.2,7.8,43.1,7.9C374.7,687.6,389.8,686.3,389.8,686.3z"/>
		</defs>
		<clipPath id="SVGID_00000101095665476110513420000004525850623694056371_">
			<use xlink:href="#SVGID_00000035500656993751039890000002379294058282063515_"  style="overflow:visible;"/>
		</clipPath>
		<g style="clip-path:url(#SVGID_00000101095665476110513420000004525850623694056371_);">
			<path class="st26" d="M300,709.8c6.3,1.2,12,4.7,15.8,10c1.3,1.8,3.2,4.1,5.3,3.4c1.3-0.5,2.1-2,2-3.4c-0.3-1.5-0.8-2.8-1.6-3.8
				c4.6,2.9,7.9,7.4,10.8,11.9c0.9,1.7,2.2,3.2,3.8,4.4c1.7,1.2,3.8,1.3,5.5,0.3c1.3-1.1,1.8-2.8,1.5-4.4s-1.1-3-2.2-4.4
				c5.1,2.9,8,8.3,11.6,12.9c0.9,1.5,2.2,2.5,3.8,3c2.2,0.3,4.4-1.1,5.1-3.2c0.7-2.1,0.4-4.4-0.8-6.3c-1.1-1.8-2.4-3.7-3.8-5.3
				c-4.9-6.5-7.6-14.4-7.9-22.6c-0.1-8.2,2.6-16.1,7.9-22.4l39.6,2.4c0,0,9.4,27,24,40.9c14.6,13.8,25.5,46.2-11.7,54.1
				S303.5,743,298.4,733.9S300,709.8,300,709.8z"/>
			<path d="M299.8,710.3c4.9,0.9,9.4,3.3,13.1,6.9c0.9,0.9,1.7,1.8,2.5,2.9c0.7,0.9,1.5,1.8,2.2,2.6c1.5,1.3,3.7,1.8,5.1,0.3
				c1.8-2.2,0.5-5-0.7-7.1l-0.8,0.5c4.9,3,8,7.8,11.1,12.4c1.5,2.1,3.2,4.2,5.8,4.9c2.2,0.7,4.5-0.4,5.4-2.5c1.2-2.8-0.3-5.5-2-7.8
				l-0.7,0.9c5.3,2.9,8,8.6,11.7,13.2c1.6,2.1,4,3.8,6.6,2.6c2.5-1.2,4-4,3.4-6.7c-0.5-3.3-2.8-5.8-4.6-8.3c-2-2.5-3.6-5.3-4.9-8.3
				c-2.6-5.9-3.7-12.5-2.9-19.1c0.7-4.7,2.2-9.4,4.7-13.3c0.4-0.7,0.8-1.3,1.3-2c0.3-0.3,0.5-0.7,0.8-0.9c0.1-0.1,0.3-0.3,0.4-0.4
				c0,0,0.4-0.5,0-0.3c0.3-0.1,0.9,0,1.1,0l2.8,0.1l20.3,1.2l9.9,0.7c1.8,0.1,3.6,0.4,5.4,0.3h0.3l-0.5-0.4c2.2,6.2,4.9,12.3,8,18.2
				c2.6,5.1,5.7,10.2,9.1,14.9c1.7,2.4,3.6,4.5,5.5,6.6c1.5,1.5,3,2.9,4.4,4.5c5.1,5.9,8.6,13.1,10,20.7c0.7,3.7,0.5,7.5-0.4,11.1
				c-1.1,3.7-3,7.1-5.9,9.9c-3.7,3.4-8.2,5.8-13.1,7.3c-4.6,1.5-9.4,2.2-14.2,2.4c-9.8,0.1-19.5-2-28.7-4.7
				c-10.3-3.2-20.3-7.1-29.9-11.9c-8.7-4.2-17-8.8-25.1-14c-3.2-2-6.2-4.1-9.2-6.3c-2.1-1.6-4.1-3.2-5.9-5c-2.1-2.4-3.4-5.4-3.6-8.6
				c-0.3-5,0.4-10.2,2.1-14.9c0.3-0.9,0.5-1.7,0.9-2.6c0.4-0.9-0.8-0.9-1.1-0.3c-1.2,3.2-2.1,6.3-2.6,9.6c-0.8,5-1.1,10.9,1.7,15.3
				c1.2,1.6,2.5,3,4.1,4.2c2.5,2.1,5,4,7.6,5.8c7.5,5.1,15.4,9.9,23.5,14c9.5,5,19.4,9.4,29.5,13.1c9.6,3.7,19.8,5.9,30.1,7
				c9.9,0.8,20-0.5,28.9-5.4c3.8-2.1,7.1-5,9.5-8.7c2-3.3,3-7,3.3-10.8c0.4-7.9-2.5-15.7-6.7-22.3c-2.1-3.2-4.5-6.2-7.3-8.8
				c-4.2-4.2-7.9-9-11.1-14.1c-4.7-7.8-8.8-16.1-12.1-24.7c-0.1-0.5-0.4-0.9-0.5-1.5c-0.1-0.3-0.3-0.4-0.5-0.4l-12.7-0.8l-21-1.3
				l-5.7-0.4c-0.1,0-0.3,0-0.4,0c-0.3,0-0.4,0.1-0.5,0.4c-0.5,0.7-0.9,1.2-1.5,1.8c-1.7,2.5-3.2,5.1-4.2,8
				c-4.5,12-1.7,25.5,5.9,35.5c2,2.6,4.5,5.1,4.7,8.6c0.3,1.6-0.3,3.2-1.5,4.4c-1.1,1.1-2.8,1.5-4.1,0.8c-1.3-0.8-2.4-1.8-3.2-3.2
				c-0.8-1.2-1.7-2.4-2.5-3.6c-1.6-2.4-3.4-4.6-5.4-6.6c-1.1-0.9-2.1-1.7-3.4-2.4c-0.5-0.3-1.1,0.4-0.7,0.9c1.5,1.8,2.8,4.4,1.7,6.7
				c-1.1,2.4-4,2.1-5.8,0.9s-3.3-3.7-4.6-5.7s-2.6-3.8-4.2-5.5c-1.7-2.1-3.7-3.8-5.9-5.3c-0.3-0.1-0.7,0-0.8,0.3
				c-0.1,0.1-0.1,0.4,0,0.5c0.9,1.7,2.6,4.7,0.4,6.2c-2,1.3-4-1.3-5-2.8c-2.5-3.4-5.8-6.2-9.5-8.2c-2.1-1.1-4.5-1.8-6.9-2.4
				C299.4,709.1,299,710.2,299.8,710.3z"/>
			<path class="st13" d="M424.5,740.9c0,0,3.4,20.2-21,27.3c-24.4,7.1-69.6-23.9-82.7-33.8c-13.1-9.9-11.6-21.8-11.9-29.3
				s-16.2-8.6-23.1,7.6c-6.9,16.2,7.9,43.8,36.8,60.9c28.9,17.1,56.6,41.5,79.7,21.8C425.4,775.7,439,768.6,424.5,740.9z"/>
			<path d="M422.1,732c-10.8,0.5-21.1,4.4-29.5,11.1c-2.4,2-4.6,4.1-6.5,6.5c-0.5,0.5,0.3,1.3,0.8,0.8c6.9-8,16.1-13.7,26.4-16.1
				c2.9-0.7,5.9-1.1,9-1.2C422.7,733,422.7,732,422.1,732L422.1,732z"/>
			<path d="M416.8,722.6c-6.1,0.8-12,2.1-17.8,4c-2.9,0.9-5.8,2-8.7,3.2c-2.4,0.9-4.7,2.1-6.9,3.4c-2.4,1.5-4.5,3.4-5.9,5.7
				c-0.4,0.7,0.5,1.2,0.9,0.5c2.8-4.4,7.6-6.7,12.3-8.6c5.4-2.2,10.9-4,16.6-5.3c3.3-0.8,6.6-1.3,9.9-1.8
				C417.7,723.5,417.5,722.5,416.8,722.6z"/>
			<path d="M407.2,713.4c-10.8,1.2-21.1,5-30.1,11.2c-2.5,1.7-4.7,3.7-7,5.7c-0.5,0.5,0.3,1.3,0.8,0.8c7.6-7.3,17-12.4,27.3-15
				c2.9-0.8,5.9-1.3,9-1.6C408,714.4,408,713.4,407.2,713.4L407.2,713.4z"/>
			<path d="M399.3,707c-12.3,0-24.3,3.2-34.8,9.4c-0.3,0.1-0.3,0.5-0.1,0.8c0.1,0.3,0.4,0.3,0.7,0.1c10.4-6.1,22.3-9.4,34.3-9.2
				c0.3,0,0.5-0.3,0.5-0.5C399.8,707.3,399.7,707,399.3,707L399.3,707z"/>
		</g>
	</g>
</g>
<path class="st12" d="M389.8,686.3c-0.8,5.5-1.2,11.2-1.3,16.9c0.1,6.3,9.6,15.2,18.5,22s24.7,21.2,14,41.5
	c-10.7,20.3-31,23.5-51.7,15.3s-45.5-24-56-32.2s-13.8-30.5-4.5-44.6c5.4-8.2,10-16.7,14-25.7c0,0,34.2,7.8,43.1,7.9
	C374.7,687.6,389.8,686.3,389.8,686.3z"/>
<path class="st27" d="M399.8,498.7c-32.4-31-134.1-50.2-134.1-50.2s-101.3,12.1-105.9,13.1c0,0-7.4,47.9,18.7,65.1
	c43.8,29,142.3,25.1,142.3,25.1c-1.8,10-5.9,82.6-5.9,82.6s-4.2,0-6.7,6.2s5.4,12.3,5.4,12.3s-4,1.5-4.6,5
	c-1.1,5.9,4.9,11.2,4.9,11.2s-7-0.5-5.5,8.6c1.5,8.8,17.1,17.5,48,19.1c30.9,1.6,41-5,43.5-10.3c2.5-5.3-1.5-7.9-1.5-7.9
	s4.5-4.1,4.7-9.1c0.1-2.9-0.7-5.8-2.5-8.2c3.8-2.1,5.9-6.2,5.5-10.5c-0.5-4.9-2.4-9.4-5.4-13.2c0,0,30.2-101.9,2.5-135.2
	C402.2,500.9,401,499.7,399.8,498.7z"/>
<path class="st22" d="M400.7,637.5c0,0-4.2,7.5-27.4,8.8"/>
<path class="st22" d="M314.9,634.4c0,0,4.5,7.3,17.1,9.6"/>
<path class="st22" d="M400.6,661.3c0,0-22.6,9.9-58.4,4"/>
<path class="st22" d="M313.6,652.8c3,2.9,6.7,5.1,10.5,6.9"/>
<path class="st22" d="M313.8,669.1c0,0,10.9,10.8,37.6,13.2"/>
<path class="st22" d="M398.3,678.5c0,0-2.2,1.8-13.1,3.2"/>
<path class="st22" d="M323.4,532.3c-1.2,6.5-2.1,12.9-2.6,19.5c-3.2-5.3-5.4-11.1-6.5-17"/>
<path class="st22" d="M174.2,523.3c0,0,16-0.7,19.8-15.8c3.8-15.2-10.4-27.7-12.7-45.5"/>
<path class="st23" d="M309.7,301.4c3.7,31.9,9.1,78.5,10.8,93.9c2.6,24.3,4.2,32.8,4.2,32.8s-52.9,8.6-90.7,8.6s-86.9-5.5-86.9-5.5
	s-16.5-47.1-14.6-81.4s5.5-50.5,18.5-67.4c16.9-22.2,59.9-24.7,59.9-24.7s23.1,14.4,38.4,12.9s30.1-9.9,30.1-9.9l25.6,4.4"/>
<path class="st12" d="M291.1,262.9c0,0-0.3,30.5-38.1,32.7c-42.2,2.5-55-36.7-55-36.7"/>
<ellipse class="st29" cx="254.6" cy="355.1" rx="35.3" ry="37.5"/>
<path class="st29" d="M232.5,353.3c0,14.6,10,26.5,22.4,26.5s22.3-11.9,22.3-26.5"/>
<path class="st12" d="M281.1,354.4c0,0-3.7-4.7-8.7,0"/>
<path class="st12" d="M236.8,354.4c0,0-3.7-4.7-8.7,0"/>
<path class="st12" d="M258,347c0,3.8,1.8,6.9,4.1,6.9s4.1-3,4.1-6.9c0-3.8-1.8-6.9-4.1-6.9S258,343.2,258,347z"/>
<path class="st12" d="M242.9,347c0,3.8,1.8,6.9,4.1,6.9c2.2,0,4.1-3,4.1-6.9c0-3.8-1.8-6.9-4.1-6.9
	C244.7,340.2,242.9,343.2,242.9,347z"/>
<path d="M208.7,210.8c-1.1,5.3-0.3,10.8,2.5,15.6c1.3,2.4,3.2,4.9,2.2,7.4l3.2-6.5c1.2,2.2,3,4.1,4.4,6.2s2.1,4.9,0.9,7.1
	c3.8-2.6,7-6.1,9.5-9.9c0,0-3.3-15.7-8.7-19.3C217.3,207.9,208.7,210.8,208.7,210.8z"/>
<path d="M208.2,210.7c-0.8,3.8-0.5,7.9,0.7,11.7c0.7,1.8,1.5,3.6,2.5,5.3c1.1,1.8,2.4,3.8,1.6,5.9c-0.1,0.5,0.7,1.1,1.1,0.4l3.2-6.5
	h-0.9c1.2,2.1,2.8,3.8,4.1,5.8c1.3,2,2.4,4.6,1.2,7c-0.3,0.4,0.3,1.1,0.8,0.8c2.1-1.5,4.2-3.3,5.9-5.1c0.9-0.9,1.7-2,2.5-3
	c0.4-0.7,1.5-1.6,1.3-2.4c-0.1-0.7-0.3-1.2-0.4-1.8c-0.3-1.3-0.7-2.6-1.1-4c-0.9-3.4-2.2-6.6-4-9.8c-0.7-1.3-1.7-2.5-2.8-3.4
	c-1.6-1.2-3.3-1.8-5.3-2.1c-3.3-0.4-6.6-0.1-9.8,1.1c-0.7,0.3-0.4,1.3,0.3,1.1c1.8-0.5,3.7-0.9,5.5-1.1c3-0.3,6.6,0.1,8.8,2.2
	c1.7,1.8,3,4.1,4,6.5c1.1,2.4,1.8,4.9,2.5,7.4c0.4,1.5,0.8,2.9,1.1,4.4v-0.4c-2.4,3.8-5.7,7.1-9.4,9.8l0.8,0.8c2.6-5.4-3-9.8-5.4-14
	c-0.1-0.3-0.5-0.4-0.8-0.1c-0.1,0-0.1,0.1-0.1,0.1l-3.2,6.6l1.1,0.4c0.4-1.7,0.1-3.7-0.8-5.1c-1.1-1.7-2-3.6-2.9-5.5
	c-1.5-3.8-1.8-8-1.1-12.1C209.4,210.3,208.3,210,208.2,210.7z"/>
<path class="st21" d="M264.8,240.1V258l14.4,2.8c0,0-0.3,22.9-28.9,22.9s-39.6-26.1-39.6-26.1l17.3-1.3l0.5-31.8L264.8,240.1z"/>
<path class="st14" d="M264.8,253.1v-13.1l-36.1-15.3l-0.1,9.9C228.5,234.7,235.2,253.1,264.8,253.1z"/>
<path class="st21" d="M259.6,142.9c0,0,18.6-1.3,27.3,8.7c8.7,10,9.8,21.8,11.6,33.5c1.8,11.7,12.4,27.8-2.4,46.6
	c-14.1,17.9-43.9,18.6-62.1,6.3c-10.4-7-15-18.2-16.6-30.2c-2-15.4-1.8-33.8,6.9-47.3c7.4-11.5,20.2-17.3,33.9-17.7
	C258.6,142.9,259.1,142.9,259.6,142.9z"/>
<path d="M299.7,137.1c-0.9-0.8-1.7-1.5-2.6-2.2c3.6-3.2,5.3-7.9,4.5-12.7c-4.7,2.8-10.5,3.2-16.1,2.4c-5.5-0.8-10.8-2.2-16.4-2.8
	c-4.1-0.5-8.2-0.1-12.1,1.2c1.8-2.5,2.5-5.7,1.8-8.6c-4.9,2.5-10.2,4.5-15.6,5.9c-3.7,0.8-7.5,1.1-11.2,1.8c-3.2,0.5-6.2,2-8.7,4
	c0-2.2,0.5-4.5,1.3-6.5c-4,1.7-6.9,5.1-7.9,9.4c-4-2.6-9.1-3-13.5-0.9c2.4,1.2,4.4,2.9,6.1,4.9c-2.2,1.3-4,3.2-5,5.5
	c-1.3,2.5-2.1,5.1-2.6,7.9c-0.5,2.8-0.5,5.5-1.1,8.2c-0.9,4.2-2.9,8-5.9,11.1c2.2,0.5,4.5,0.3,6.6-0.7c-2,2.9-2.8,6.9-3,10.4
	c-0.3,4.9-0.3,10-2.8,14.1c2.1,0,4.4-0.5,6.3-1.5c-1.3,6.5,2.2,16,7.6,20.3l1.5-2.5c1.7-2.8,5-4.2,8.2-3.3c2.5,0.7,5,1.7,6.2,3.3
	c2.4,3.6,1.8,8.4,5.4,8.4s2.5-5.1,2.2-11.3s0.3-19.8,0.3-19.8c0.3-10.5,3.7-11.3,3.7-11.3c4.5,2.1,9.2,3.4,14.1,4.1
	c-1.2-2.5-1.8-5.3-2-8c5.1,4.2,11.5,6.6,18.2,6.6c3,0,6.3-0.4,9.1,0.7c-2.8-2.5-4.7-5.9-5.4-9.6c4.2,3.6,9.4,5.8,14.8,6.5
	c8,0.8,16.4-1.8,24,0.4c-3.2-3.4-6.6-6.9-10.2-10c5,0.9,10,0.1,14.5-2.2c-3.2-3-6.1-6.3-8.4-9.9c3.3-1.1,6.1-3,8.3-5.7
	C308.8,143,303.9,140.5,299.7,137.1z"/>
<path d="M300.2,136.7c-0.9-0.8-1.7-1.5-2.6-2.2v0.8c3.7-3.3,5.5-8.3,4.6-13.2c-0.1-0.3-0.4-0.5-0.7-0.4h-0.1
	c-10.7,6.3-23.3-0.1-34.7-0.5c-3.3-0.1-6.6,0.3-9.8,1.3l0.7,0.8c1.7-2.5,2.8-5.9,1.8-9c-0.1-0.3-0.4-0.5-0.7-0.4h-0.1
	c-5.9,2.8-11.9,5.4-18.5,6.5c-5.9,0.9-12.3,1.3-17.1,5.4l0.9,0.4c0.1-2.2,0.5-4.4,1.3-6.3c0.1-0.5-0.4-0.8-0.8-0.7
	c-4.1,1.8-7,5.4-8.2,9.6l0.8-0.3c-4.2-2.8-9.5-3.2-14.1-0.9c-0.3,0.1-0.4,0.5-0.1,0.8c0,0.1,0.1,0.1,0.1,0.1
	c2.2,1.2,4.2,2.9,5.9,4.9l0.1-0.8c-4.1,2.1-6.2,7-7.4,11.1c-1.3,5-0.9,10.3-2.9,15c-1.1,2.5-2.5,4.6-4.4,6.6c-0.3,0.3-0.3,0.5,0,0.8
	c0,0,0.1,0.1,0.3,0.1c2.4,0.5,4.9,0.3,7-0.8l-0.8-0.8c-2.4,3.4-2.9,7.8-3.2,11.9c-0.3,4.4-0.3,9-2.6,12.8c-0.1,0.3-0.1,0.5,0.1,0.8
	c0.1,0,0.1,0.1,0.3,0.1c2.2,0,4.5-0.5,6.6-1.5l-0.8-0.7c-0.7,3.8-0.1,7.6,1.3,11.2c1.3,3.7,3.6,7,6.5,9.6c0.3,0.3,0.5,0.3,0.8,0
	c0,0,0,0,0.1-0.1c1.2-2.1,2.2-4.2,4.5-5.3c3.8-1.2,8,0.1,10.7,3.2c0.8,1.3,1.3,2.8,1.7,4.4c0.3,1.2,0.8,2.2,1.6,3.2
	c1.3,1.2,3.3,1.1,4.5-0.1c0.3-0.3,0.4-0.5,0.7-0.9c0.4-1.2,0.5-2.5,0.4-3.8c0-1.7-0.3-3.6-0.4-5.3c-0.1-2.8-0.1-5.5-0.1-8.3
	c0-4.2,0.3-8.4,0.4-12.5c0.1-3,0.3-6.3,1.8-9c0.3-0.5,0.7-0.9,1.2-1.3c0.1,0,0.3-0.1,0.3-0.1c0.1-0.1-0.1,0,0,0h-0.3
	c4.5,2.1,9.4,3.6,14.2,4.2c0.3,0.1,0.7-0.1,0.7-0.4c0-0.1,0-0.3,0-0.4c-1.2-2.5-1.8-5.1-2-7.8l-0.9,0.4c3.6,3,7.9,5.1,12.5,6.2
	c2.4,0.5,4.7,0.7,7.1,0.7c2.6,0,5.4-0.3,7.9,0.7c0.5,0.1,0.9-0.5,0.5-0.9c-2.8-2.5-4.6-5.8-5.3-9.4l-0.9,0.5
	c3.8,3.2,8.4,5.3,13.3,6.1c5.4,0.9,10.8,0,16.4-0.3c3.2-0.3,6.3,0.1,9.4,0.9c0.3,0,0.7-0.1,0.7-0.4c0-0.1,0-0.4-0.1-0.5
	c-3.2-3.6-6.6-6.9-10.2-10l-0.5,0.9c5.1,0.9,10.4,0.1,15-2.4c0.3-0.1,0.4-0.5,0.3-0.8c0,0,0-0.1-0.1-0.1c-3.2-2.9-5.9-6.2-8.4-9.8
	l-0.3,0.8c3.3-1.2,6.3-3.2,8.6-5.8c0.3-0.3,0.1-0.5,0-0.8c0,0-0.1-0.1-0.3-0.1C309.1,142.6,304.3,140.1,300.2,136.7
	c-0.5-0.4-1.3,0.4-0.8,0.8c4.4,3.4,9.2,5.9,14.5,7.5l-0.3-0.9c-2.1,2.5-5,4.5-8,5.5c-0.3,0.1-0.5,0.4-0.4,0.7c0,0,0,0,0,0.1
	c2.5,3.7,5.4,7,8.6,10l0.1-0.8c-4.4,2.2-9.4,3-14.1,2.2c-0.5-0.1-1.1,0.5-0.5,0.9c3.6,3.2,6.9,6.5,10.2,10l0.5-0.9
	c-5.1-1.5-10.5-0.8-15.8-0.5c-5.1,0.7-10.3,0-15.2-1.7c-2.6-1.1-5.1-2.5-7.4-4.4c-0.3-0.3-0.5-0.3-0.8,0c-0.1,0.1-0.1,0.3-0.1,0.5
	c0.8,3.8,2.8,7.3,5.5,9.9l0.5-0.9c-2.4-0.7-4.7-0.9-7.3-0.7c-2.4,0.1-4.9,0-7.3-0.5c-4.6-0.9-9-2.9-12.5-5.9
	c-0.4-0.3-0.9-0.1-0.9,0.4c0.1,2.9,0.9,5.8,2.1,8.4l0.7-0.8c-2.4-0.4-4.7-0.8-7.1-1.5c-1.2-0.3-2.2-0.7-3.4-1.2l-1.7-0.7
	c-0.5-0.3-1.2-0.5-1.8-0.8c-0.8-0.3-1.6,0.7-2.1,1.3c-1.3,2.1-2.1,4.5-2.2,7c-0.3,2.1-0.3,4.2-0.4,6.5c-0.4,6.3-0.4,12.8,0,19.1
	c0.3,1.8,0.3,3.7,0.3,5.5c0,1.1-0.1,2.5-1.3,3c-1.3,0.4-2.6-0.3-3-1.6l0,0c-0.7-1.5-1.1-3.2-1.6-4.6c-0.8-2-2.2-3.4-4.2-4.2
	c-2.1-1.2-4.6-1.6-7-1.3c-2.1,0.5-4,1.8-5.1,3.7c-0.5,0.8-0.9,1.7-1.5,2.5l0.8-0.1c-2.8-2.5-5-5.7-6.2-9.1c-1.5-3.4-1.8-7-1.3-10.7
	c0.1-0.3-0.1-0.7-0.4-0.7c-0.1,0-0.3,0-0.4,0c-1.8,0.8-4,1.3-6.1,1.3l0.5,0.8c4.5-7.5,0.8-17.3,5.8-24.7c0.3-0.5-0.3-0.9-0.8-0.8
	c-2,0.9-4.1,1.1-6.2,0.7l0.3,0.9c3.2-3.2,5.1-7.3,6.1-11.6c0.5-2.6,0.5-5.4,1.1-8c0.4-2.5,1.2-5,2.4-7.3c1.1-2.4,2.8-4.4,5-5.7
	c0.3-0.1,0.4-0.5,0.1-0.8c0,0,0,0-0.1-0.1c-1.7-2.1-3.8-3.7-6.1-5v0.9c4.2-2,9.1-1.6,12.9,0.9c0.3,0.1,0.7,0,0.8-0.3v-0.1
	c1.1-4,3.8-7.3,7.6-9l-0.8-0.7c-0.8,2.1-1.3,4.4-1.3,6.6c0,0.3,0.3,0.5,0.5,0.5c0.1,0,0.3,0,0.4-0.1c4.9-4.1,11.6-4.2,17.5-5.3
	c6.3-1.1,12-3.7,17.8-6.5l-0.8-0.3c0.8,2.8-0.3,5.8-1.8,8.2c-0.1,0.3,0,0.7,0.3,0.8c0.1,0.1,0.3,0.1,0.4,0c11.9-4.2,24,3,36,1.8
	c3-0.3,5.9-1.2,8.6-2.6l-0.8-0.3c0.7,4.5-0.9,9.1-4.4,12.1c-0.3,0.3-0.3,0.5,0,0.8l0,0c0.8,0.8,1.7,1.6,2.6,2.2
	C300,138,300.8,137.2,300.2,136.7z"/>
<path d="M277.7,186.8c-0.8,5,0.4,10,3.2,14.4c0.7,0.9,1.5,2,2.1,2.8c0.9,1.2,1.6,2.4,0.8,3.8c-1.3,2.5-4.6,3.4-7.3,3
	c-0.7-0.1-1.1,0.9-0.3,1.1c2.6,0.4,5.4-0.4,7.4-2.2c0.9-0.8,1.5-2,1.6-3.3c-0.1-1.2-0.7-2.4-1.6-3.3c-2-2.2-3.4-4.7-4.4-7.5
	c-0.9-2.8-1.1-5.7-0.7-8.6C278.9,186.4,277.8,186.1,277.7,186.8L277.7,186.8z"/>
<path d="M285.9,219.8c-2,5.8-8.3,8.8-14.1,6.7c-2.8-0.9-5-3-6.3-5.7c-0.3-0.7-1.3-0.1-0.9,0.5c2.9,6.1,10.3,8.6,16.2,5.5
	c2.9-1.5,5-3.8,6.2-6.9C287.2,219.4,286,219.1,285.9,219.8L285.9,219.8z"/>
<path class="st14" d="M254.6,200.2c0,3.6,2.1,6.5,4.7,6.5c2.6,0,4.6-2.9,4.6-6.5c0-3.6-2.1-6.5-4.6-6.5S254.6,196.7,254.6,200.2z"/>
<path class="st14" d="M287.3,198c0,3.6,2.1,6.5,4.7,6.5c2.6,0,4.7-2.9,4.7-6.5s-2.1-6.5-4.7-6.5C289.4,191.5,287.3,194.4,287.3,198z
	"/>
<path d="M258.3,187.1l-0.8,0.1c-1.8,0.3-3.6,1.1-5.3,1.5c-0.8,0.3-1.7,0.1-2.4-0.4c-2.5-2.5,2.8-5.4,4.5-6.1
	c3.4-1.2,9.6-1.6,12.4,1.1c0.9,0.7,1.3,1.8,1.1,2.9c-0.5,1.3-2.4,1.6-4,1.5C262,187.3,260.1,187.2,258.3,187.1z"/>
<path d="M258.3,186.5c-1.6,0.1-3.3,0.5-4.7,1.2c-1.1,0.3-3.3,1.1-3.8-0.5c-0.3-0.9,0.5-1.7,1.2-2.2c0.8-0.7,1.6-1.3,2.6-1.7
	c2-0.9,4.2-1.3,6.5-1.3c2.4,0,5.9,0.3,7.1,2.6c1.1,1.8-1.2,2.6-2.6,2.6C262.3,187.1,260.3,186.5,258.3,186.5c-0.7,0-0.7,1.2,0,1.1
	c2.2,0,4.4,0.7,6.5,0.5c1.5,0.1,2.8-0.7,3.4-2c0.4-1.6-0.4-3.2-1.8-4c-1.3-0.8-2.8-1.3-4.2-1.5c-2.9-0.4-5.9,0-8.7,1.1
	c-1.8,0.8-4.7,2.5-4.9,4.7c0,1.5,1.3,2.6,2.8,2.5h0.1c2.4-0.1,4.5-1.5,6.9-1.6C259,187.6,259,186.5,258.3,186.5z"/>
<path d="M297.5,179.4c-0.5-0.1-1.1-0.3-1.5-0.3c-3.7-0.4-9.8,0.5-11.9,3.6c-0.7,0.8-0.8,2.1-0.4,3c0.8,1.2,2.8,1.1,4.2,0.7
	c1.7-0.7,3.4-1.2,5.3-1.6l0.8-0.1c1.5,0,2.9,0.1,4.4,0.3L297.5,179.4z"/>
<path d="M297.6,178.9c-2-0.5-4.1-0.5-6.2-0.3s-4.1,0.9-5.9,2c-1.6,1.1-3.3,3-2.5,5c0.8,2,3.7,1.7,5.5,1.1c1.6-0.7,3.2-1.1,4.7-1.5
	c1.7-0.1,3.4-0.1,5,0.1c0.3,0,0.5-0.3,0.5-0.5v-0.1l-0.8-5.4c-0.1-0.7-1.2-0.4-1.1,0.3l0.8,5.4l0.5-0.7c-1.3-0.1-2.5-0.3-3.8-0.3
	c-1.2,0-2.2,0.3-3.3,0.5c-1.2,0.4-2.4,0.9-3.6,1.2c-0.9,0.4-1.8,0.4-2.8,0.1c-1.2-0.5-1.1-1.8-0.5-2.8c0.4-0.7,1.1-1.3,1.7-1.7
	c1.6-0.9,3.3-1.6,5.1-1.7c2-0.4,4.1-0.3,6.1,0.1c0.3,0.1,0.7-0.1,0.7-0.4C298.1,179.3,298,179,297.6,178.9z"/>
<path class="st30" d="M195.7,202.6l-3.2,1.8c-1.3,0.7-2.2,1.8-2.5,3.3c-0.5,1.8-0.1,4,0.8,5.5l0,0c1.1,1.8,2.8,3.2,4.9,3.7
	c1.3,0.3,2.6,0.1,3.8-0.5l3.3-1.7L195.7,202.6z"/>
<path class="st13" d="M228.9,184.3l11.5,0.1c0.5,0,1.1,0.4,1.3,0.8c0.3,0.4,0.3,1.1,0,1.5l-5.7,9.6c-3,0.7-6.2-0.8-7.6-3.4
	C226.4,190.2,226.7,186.5,228.9,184.3z"/>
<g>
	<g>
		<defs>
			<path id="SVGID_00000113352821568767430790000005233298958014652032_" d="M228.9,184.3l11.5,0.1c0.5,0,1.1,0.4,1.3,0.8
				c0.3,0.4,0.3,1.1,0,1.5l-5.7,9.6c-3,0.7-6.2-0.8-7.6-3.4C226.4,190.2,226.7,186.5,228.9,184.3z"/>
		</defs>
		<clipPath id="SVGID_00000011027625636123120440000012258499297279215502_">
			<use xlink:href="#SVGID_00000113352821568767430790000005233298958014652032_"  style="overflow:visible;"/>
		</clipPath>
		<g style="clip-path:url(#SVGID_00000011027625636123120440000012258499297279215502_);">
			<path d="M242.2,190.4c-2.6-1.6-4.4-4.2-4.7-7.3l8,0.5L242.2,190.4z"/>
			<path d="M242.5,189.8c-2.4-1.5-4.1-4-4.5-6.7l-0.5,0.5l7,0.4h1.1l-0.5-0.8l-2.9,5.9l-0.4,0.8c-0.3,0.7,0.7,1.2,0.9,0.5l2.9-5.9
				l0.4-0.8c0.1-0.3,0-0.7-0.3-0.8c-0.1,0-0.1-0.1-0.3-0.1l-7-0.4h-1.1c-0.3,0-0.5,0.3-0.5,0.5l0,0c0.4,3.2,2.2,6.1,5,7.6
				c0.3,0.1,0.7,0,0.8-0.3C242.7,190.1,242.7,190,242.5,189.8z"/>
		</g>
	</g>
</g>
<path class="st12" d="M228.9,184.3l11.5,0.1c0.5,0,1.1,0.4,1.3,0.8c0.3,0.4,0.3,1.1,0,1.5l-5.7,9.6c-3,0.7-6.2-0.8-7.6-3.4
	C226.4,190.2,226.7,186.5,228.9,184.3z"/>
<path class="st27" d="M202.6,214.7l4.7-2.6c-2.4-0.9-4.4-2.6-5.5-5c-2.4-4.2-1.5-7.1-1.5-7.1l-4.7,2.6c-0.4,2.5,0.1,5,1.5,7.1
	C199.7,214.2,202.6,214.7,202.6,214.7z"/>
<path class="st32" d="M207.1,212.2l28.9-15.8c-2.4-0.9-4.4-2.6-5.5-5c-2.4-4.2-1.5-7.1-1.5-7.1l-28.9,15.8c-0.4,2.5,0.1,5,1.5,7.1
	C204.2,211.8,207.1,212.2,207.1,212.2z"/>
<line class="st12" x1="232.2" y1="193.8" x2="203.4" y2="209.2"/>
<line class="st12" x1="229.6" y1="189.6" x2="200.8" y2="204.9"/>
<path class="st33" d="M226.5,208.4c-1.7-4.2-5.1-9.4-10.4-9.6c-7-0.3-9.8,7.9-7.8,13.3c2.2,6.2,10.3,9,16.4,7.5"/>
<path d="M227,208.2c-1.5-3.4-3.7-7.1-7.1-9c-3.2-1.7-7-1.2-9.6,1.2c-2.2,2.4-3.4,5.8-3,9.1c0.4,3.6,2.4,6.7,5.4,8.6
	c3.7,2.2,8,3,12.3,2.1c0.7-0.1,0.4-1.2-0.3-1.1c-6.2,1.3-14.5-1.5-16.1-8.3c-0.7-2.9-0.1-5.9,1.6-8.4c1.8-2.6,5.1-3.7,8-2.6
	c3.8,1.3,6.3,5.3,7.8,8.8C226.4,209.2,227.4,208.9,227,208.2L227,208.2z"/>
<path d="M221.4,207.2c-1.5-1.8-3.6-3.4-6.1-2.9c-1.2,0.3-2.1,0.9-2.6,2c-0.5,1.2-0.8,2.4-0.8,3.7c0,0.3,0.4,0.5,0.7,0.5
	c0.3,0,0.4-0.3,0.5-0.5c0-1.8,0.5-4.4,2.8-4.6c2-0.3,3.7,1.2,4.9,2.6C221.1,208.6,221.9,207.8,221.4,207.2L221.4,207.2z"/>
<path d="M216,205c0.1,3.4,0.4,7.5,3.3,9.9c0.5,0.4,1.3-0.4,0.8-0.8c-2.8-2.1-2.9-5.8-3-9.1c0-0.3-0.4-0.5-0.7-0.5
	C216.2,204.6,216.1,204.7,216,205z"/>
<path class="st21" d="M172.6,419.4l16.5-72l-64.7-11.1c0,0-14.6,58.2-17,76.5c-2.4,18.3,16.4,47.5,49.3,53.3"/>
<path class="st14" d="M187.6,353.3c0,0-21.9,4.9-39.6,4s-28.1-3.7-28.1-3.7l4.2-17.3L187.6,353.3z"/>
<path class="st23" d="M196.7,302.8c3,19.6-4.1,49.3-4.1,49.3s-25.8,1.7-45-2.8s-25.7-11.2-25.7-11.2c2.5-12.7,6.7-25.1,12.7-36.5
	c9.5-18.3,26.9-28.9,26.9-28.9"/>
<path class="st34" d="M195.3,338.6c0,0-39.3,5.3-70-13.6"/>
<path class="st13" d="M224.1,464.1l142.3-20.7c0,0,18.9,36.5,14.5,34.6c-4.4-2-117.2,13.2-120.4,12.8s-32.7-20.4-32.7-20.4
	L224.1,464.1z"/>
<path class="st21" d="M107.3,412.7c-2.5,19.5,5.4,48.3,40.4,54.3c34.9,6.1,70.8-2.5,81.8-3.3c11.3,7.4,15.8,0.9,23.1,3.6
	c7.3,2.6,7.4,8.7,13.1,6.9c5.7-1.8,2.9-6.6,2.9-6.6s4.7,5,9.5,2.1c4.7-2.9,1.8-7.9,1.8-7.9c2.1,2.2,5.4,2.8,8,1.1
	c4.5-2.9,0.4-8.7,0.4-8.7s9.8-0.9,4-9.4c-3.8-5.4-8.4-10-13.8-13.8c-14.8-9.6-33.1-4.5-37.3-5.1c-9.2-2.1-69.2-11.3-69.2-11.3"/>
<path class="st22" d="M268.6,467.5c0,0-3.7-7-16.5-13.6"/>
<path class="st22" d="M279.8,461.7c0,0-5.1-8.8-17.9-15.3"/>
<path class="st22" d="M288.2,454.1c-5.1-6.5-11.6-11.7-19-15.6"/>
<path class="st22" d="M171.8,414.4c0,0-21.8-4.4-32,2.4"/>
<polygon class="st13" points="355.9,415.2 413,383.3 407.4,377.5 283.5,396.1 262.9,487.6 224.1,464.8 224.1,471.5 268.7,498.4 "/>
<polygon class="st13" points="288.9,402 413,383.3 392.7,479.7 268.7,498.4 "/>
<path class="st13" d="M333.2,433.1c-5.5,7.6-5.1,17.3,0.9,21.5c6.1,4.2,15.6,1.6,21.1-6.1c5.5-7.6,5.1-17.3-0.9-21.5
	C348.2,422.8,338.7,425.5,333.2,433.1z"/>
<line class="st12" x1="394.5" y1="471.1" x2="270.3" y2="490.8"/>
<line class="st12" x1="288.9" y1="402" x2="283.5" y2="396.1"/>
<polygon class="st32" points="195.1,102.7 191.2,112.9 181.7,106.9 184.7,117.6 173.4,118 182.3,124.8 173.4,131.8 184.7,132.2 
	181.7,142.9 191.2,136.8 195.1,147.1 199.1,136.8 208.6,142.9 205.4,132.2 216.9,131.8 207.9,124.8 216.9,118 205.4,117.6 
	208.6,106.9 199.1,112.9 "/>
<polygon class="st32" points="507,312.7 500.8,322.1 491.3,328.2 500.8,334.2 507,343.6 513.3,334.2 522.8,328.2 513.3,322.1 "/>
<polygon class="st27" points="-110.2,581.4 -116.5,590.6 -126,596.8 -116.5,602.9 -110.2,612.2 -104,602.9 -94.3,596.8 -104,590.6 
	"/>
<path class="st14" d="M-81.4,441.2v33.9c0,1.2-0.7,2.2-1.6,2.9c-1.2,0.8-2.9,0.8-4.1-0.1l-6.9-5.3l-14.4,17.1
	c-1.5,1.7-4.1,2-5.9,0.5l-15.6-12.3c-0.7-0.5-1.1-1.3-1.3-2.1c-0.7-2.6-0.5-5.4,0.3-7.9l16.7-9.2l-10-8.8c-1.1-0.9-1.6-2.4-1.7-3.7
	c0.1-1.6,0.8-3.2,2.1-4.1l33.4-9.9c1.5-0.1,2.9,0,4.2,0.4C-81.7,433.5-81.4,439.5-81.4,441.2z"/>
<path class="st13" d="M-85.8,435.1v32.8c0,1.2-0.5,2.2-1.6,2.8c-1.2,0.8-2.8,0.7-4-0.1l-6.6-5.1l-14,16.5c-1.5,1.7-4,2-5.7,0.5
	l-12.3-9.9c-1.7-1.5-2-3.8-0.5-5.5l0,0l12.9-15l-6.3-5.5c-0.8-0.7-1.3-1.8-1.1-2.9c0.3-1.3,1.2-2.4,2.4-2.6l32.2-8.8
	c1.8-0.5,3.8,0.5,4.4,2.4C-85.8,434.6-85.8,434.8-85.8,435.1L-85.8,435.1z"/>
<path class="st35" d="M530.6,726.8c47.7-36.9,56.3-105.6,19.4-153.2c-36.9-47.7-105.6-56.3-153.2-19.4c-20,15.6-34,37.5-39.6,62.1
	L530.6,726.8z"/>
<g class="st9">
	<path class="st36" d="M214.3,277.1c0,1.2-1.1,2.2-2.2,2.2c-1.2,0-2.2-1.1-2.2-2.2c0-1.2,1.1-2.2,2.2-2.2S214.3,275.9,214.3,277.1
		L214.3,277.1z"/>
	<path class="st36" d="M237.9,277.1c0,1.2-1.1,2.2-2.2,2.2c-1.2,0-2.2-1.1-2.2-2.2c0-1.2,1.1-2.2,2.2-2.2
		C236.8,274.9,237.9,275.9,237.9,277.1L237.9,277.1z"/>
	<path class="st36" d="M261.3,277.1c0,1.2-1.1,2.2-2.2,2.2c-1.2,0-2.2-1.1-2.2-2.2c0-1.2,1.1-2.2,2.2-2.2
		C260.4,274.9,261.3,275.9,261.3,277.1C261.5,277.1,261.5,277.1,261.3,277.1z"/>
	<path class="st36" d="M284.9,277.1c0,1.2-1.1,2.2-2.2,2.2c-1.2,0-2.2-1.1-2.2-2.2c0-1.2,1.1-2.2,2.2-2.2
		C284,274.9,284.9,275.9,284.9,277.1L284.9,277.1z"/>
	<path class="st37" d="M308.5,277.1c0,1.2-1.1,2.2-2.2,2.2c-1.2,0-2.2-1.1-2.2-2.2c0-1.2,1.1-2.2,2.2-2.2
		C307.6,274.9,308.5,275.9,308.5,277.1L308.5,277.1z"/>
	<path class="st36" d="M332.1,277.1c0,1.2-1.1,2.2-2.2,2.2c-1.2,0-2.2-1.1-2.2-2.2c0-1.2,1.1-2.2,2.2-2.2
		C331.1,274.9,332.1,275.9,332.1,277.1L332.1,277.1z"/>
	<path class="st36" d="M355.8,277.1c0,1.2-1.1,2.2-2.2,2.2c-1.2,0-2.2-1.1-2.2-2.2c0-1.2,1.1-2.2,2.2-2.2
		C354.7,274.9,355.8,275.9,355.8,277.1L355.8,277.1z"/>
	<path class="st37" d="M214.3,303.4c0,1.2-1.1,2.2-2.2,2.2s-2.2-1.1-2.2-2.2s1.1-2.2,2.2-2.2S214.3,302,214.3,303.4L214.3,303.4z"/>
	<path class="st36" d="M237.9,303.4c0,1.2-1.1,2.2-2.2,2.2s-2.2-1.1-2.2-2.2s1.1-2.2,2.2-2.2C236.8,301.1,237.9,302,237.9,303.4
		C237.9,303.2,237.9,303.2,237.9,303.4z"/>
	<path class="st36" d="M261.3,303.4c0,1.2-1.1,2.2-2.2,2.2s-2.2-1.1-2.2-2.2s1.1-2.2,2.2-2.2S261.3,302,261.3,303.4L261.3,303.4z"/>
	<path class="st36" d="M284.9,303.4c0,1.2-1.1,2.2-2.2,2.2s-2.2-1.1-2.2-2.2s1.1-2.2,2.2-2.2C284,301.1,284.9,302,284.9,303.4
		C284.9,303.2,284.9,303.2,284.9,303.4z"/>
	<path class="st36" d="M308.5,303.4c0,1.2-1.1,2.2-2.2,2.2s-2.2-1.1-2.2-2.2s1.1-2.2,2.2-2.2S308.5,302,308.5,303.4L308.5,303.4z"/>
	<path class="st36" d="M332.1,303.4c0,1.2-1.1,2.2-2.2,2.2s-2.2-1.1-2.2-2.2s1.1-2.2,2.2-2.2S332.1,302,332.1,303.4L332.1,303.4z"/>
	<path class="st36" d="M355.8,303.4c0,1.2-1.1,2.2-2.2,2.2s-2.2-1.1-2.2-2.2s1.1-2.2,2.2-2.2S355.8,302,355.8,303.4L355.8,303.4z"/>
	<path class="st36" d="M214.3,329.5c0,1.2-1.1,2.2-2.2,2.2s-2.2-1.1-2.2-2.2s1.1-2.2,2.2-2.2S214.3,328.3,214.3,329.5z"/>
	<path class="st36" d="M237.9,329.5c0,1.2-1.1,2.2-2.2,2.2s-2.2-1.1-2.2-2.2s1.1-2.2,2.2-2.2S237.9,328.3,237.9,329.5L237.9,329.5z"
		/>
	<path class="st37" d="M261.3,329.5c0,1.2-1.1,2.2-2.2,2.2s-2.2-1.1-2.2-2.2s1.1-2.2,2.2-2.2C260.4,327.2,261.3,328.3,261.3,329.5z"
		/>
	<path class="st36" d="M284.9,329.5c0,1.2-1.1,2.2-2.2,2.2s-2.2-1.1-2.2-2.2s1.1-2.2,2.2-2.2S284.9,328.3,284.9,329.5L284.9,329.5z"
		/>
	<path class="st36" d="M308.5,329.5c0,1.2-1.1,2.2-2.2,2.2s-2.2-1.1-2.2-2.2s1.1-2.2,2.2-2.2C307.6,327.2,308.5,328.3,308.5,329.5z"
		/>
	<path class="st36" d="M332.1,329.5c0,1.2-1.1,2.2-2.2,2.2s-2.2-1.1-2.2-2.2s1.1-2.2,2.2-2.2C331.1,327.2,332.1,328.3,332.1,329.5z"
		/>
	<path class="st36" d="M355.8,329.5c0,1.2-1.1,2.2-2.2,2.2s-2.2-1.1-2.2-2.2s1.1-2.2,2.2-2.2C354.7,327.2,355.8,328.3,355.8,329.5z"
		/>
	<path class="st36" d="M214.3,355.7c0,1.2-1.1,2.2-2.2,2.2s-2.2-1.1-2.2-2.2c0-1.2,1.1-2.2,2.2-2.2S214.3,354.4,214.3,355.7
		L214.3,355.7z"/>
	<path class="st36" d="M237.9,355.7c0,1.2-1.1,2.2-2.2,2.2s-2.2-1.1-2.2-2.2c0-1.2,1.1-2.2,2.2-2.2
		C236.8,353.5,237.9,354.4,237.9,355.7L237.9,355.7z"/>
	<path class="st36" d="M261.3,355.7c0,1.2-1.1,2.2-2.2,2.2s-2.2-1.1-2.2-2.2c0-1.2,1.1-2.2,2.2-2.2
		C260.4,353.5,261.3,354.4,261.3,355.7C261.5,355.7,261.5,355.7,261.3,355.7z"/>
	<path class="st36" d="M284.9,355.7c0,1.2-1.1,2.2-2.2,2.2s-2.2-1.1-2.2-2.2c0-1.2,1.1-2.2,2.2-2.2
		C284,353.5,284.9,354.4,284.9,355.7L284.9,355.7z"/>
	<path class="st37" d="M308.5,355.7c0,1.2-1.1,2.2-2.2,2.2s-2.2-1.1-2.2-2.2c0-1.2,1.1-2.2,2.2-2.2
		C307.6,353.5,308.5,354.4,308.5,355.7L308.5,355.7z"/>
	<path class="st36" d="M332.1,355.7c0,1.2-1.1,2.2-2.2,2.2s-2.2-1.1-2.2-2.2c0-1.2,1.1-2.2,2.2-2.2
		C331.1,353.5,332.1,354.4,332.1,355.7L332.1,355.7z"/>
	<path class="st36" d="M355.8,355.7c0,1.2-1.1,2.2-2.2,2.2s-2.2-1.1-2.2-2.2c0-1.2,1.1-2.2,2.2-2.2
		C354.7,353.5,355.8,354.4,355.8,355.7L355.8,355.7z"/>
	<path class="st36" d="M214.3,381.8c0,1.2-1.1,2.2-2.2,2.2s-2.2-1.1-2.2-2.2s1.1-2.2,2.2-2.2S214.3,380.6,214.3,381.8L214.3,381.8z"
		/>
	<path class="st36" d="M237.9,381.8c0,1.2-1.1,2.2-2.2,2.2s-2.2-1.1-2.2-2.2s1.1-2.2,2.2-2.2C236.8,379.6,237.9,380.6,237.9,381.8
		L237.9,381.8z"/>
	<path class="st36" d="M261.3,381.8c0,1.2-1.1,2.2-2.2,2.2s-2.2-1.1-2.2-2.2s1.1-2.2,2.2-2.2S261.3,380.6,261.3,381.8L261.3,381.8z"
		/>
	<path class="st36" d="M284.9,381.8c0,1.2-1.1,2.2-2.2,2.2s-2.2-1.1-2.2-2.2s1.1-2.2,2.2-2.2C284,379.6,284.9,380.6,284.9,381.8
		L284.9,381.8z"/>
	<path class="st36" d="M308.5,381.8c0,1.2-1.1,2.2-2.2,2.2s-2.2-1.1-2.2-2.2s1.1-2.2,2.2-2.2S308.5,380.6,308.5,381.8L308.5,381.8z"
		/>
	<path class="st36" d="M332.1,381.8c0,1.2-1.1,2.2-2.2,2.2s-2.2-1.1-2.2-2.2s1.1-2.2,2.2-2.2S332.1,380.6,332.1,381.8L332.1,381.8z"
		/>
	<path class="st36" d="M355.8,381.8c0,1.2-1.1,2.2-2.2,2.2s-2.2-1.1-2.2-2.2s1.1-2.2,2.2-2.2S355.8,380.6,355.8,381.8L355.8,381.8z"
		/>
	<path class="st36" d="M214.3,408.1c0,1.2-1.1,2.2-2.2,2.2s-2.2-1.1-2.2-2.2s1.1-2.2,2.2-2.2S214.3,406.8,214.3,408.1z"/>
	<path class="st36" d="M237.9,408.1c0,1.2-1.1,2.2-2.2,2.2s-2.2-1.1-2.2-2.2s1.1-2.2,2.2-2.2S237.9,406.8,237.9,408.1L237.9,408.1z"
		/>
	<path class="st36" d="M261.3,408.1c0,1.2-1.1,2.2-2.2,2.2s-2.2-1.1-2.2-2.2s1.1-2.2,2.2-2.2C260.4,405.8,261.3,406.8,261.3,408.1z"
		/>
	<path class="st37" d="M284.9,408.1c0,1.2-1.1,2.2-2.2,2.2s-2.2-1.1-2.2-2.2s1.1-2.2,2.2-2.2S284.9,406.8,284.9,408.1L284.9,408.1z"
		/>
	<path class="st36" d="M308.5,408.1c0,1.2-1.1,2.2-2.2,2.2s-2.2-1.1-2.2-2.2s1.1-2.2,2.2-2.2C307.6,405.8,308.5,406.8,308.5,408.1z"
		/>
	<path class="st36" d="M332.1,408.1c0,1.2-1.1,2.2-2.2,2.2s-2.2-1.1-2.2-2.2s1.1-2.2,2.2-2.2C331.1,405.8,332.1,406.8,332.1,408.1z"
		/>
	<path class="st36" d="M355.8,408.1c0,1.2-1.1,2.2-2.2,2.2s-2.2-1.1-2.2-2.2s1.1-2.2,2.2-2.2C354.7,405.8,355.8,406.8,355.8,408.1z"
		/>
	<path class="st36" d="M214.3,434.2c0,1.2-1.1,2.2-2.2,2.2s-2.2-1.1-2.2-2.2c0-1.2,1.1-2.2,2.2-2.2S214.3,433,214.3,434.2
		L214.3,434.2z"/>
	<path class="st36" d="M237.9,434.2c0,1.2-1.1,2.2-2.2,2.2s-2.2-1.1-2.2-2.2c0-1.2,1.1-2.2,2.2-2.2
		C236.8,431.9,237.9,433,237.9,434.2L237.9,434.2z"/>
	<path class="st36" d="M261.3,434.2c0,1.2-1.1,2.2-2.2,2.2s-2.2-1.1-2.2-2.2c0-1.2,1.1-2.2,2.2-2.2
		C260.4,431.9,261.3,433,261.3,434.2C261.5,434.2,261.5,434.2,261.3,434.2z"/>
	<path class="st36" d="M284.9,434.2c0,1.2-1.1,2.2-2.2,2.2s-2.2-1.1-2.2-2.2c0-1.2,1.1-2.2,2.2-2.2C284,431.9,284.9,433,284.9,434.2
		L284.9,434.2z"/>
	<path class="st36" d="M308.5,434.2c0,1.2-1.1,2.2-2.2,2.2s-2.2-1.1-2.2-2.2c0-1.2,1.1-2.2,2.2-2.2
		C307.6,431.9,308.5,433,308.5,434.2L308.5,434.2z"/>
	<path class="st37" d="M332.1,434.2c0,1.2-1.1,2.2-2.2,2.2s-2.2-1.1-2.2-2.2c0-1.2,1.1-2.2,2.2-2.2
		C331.1,431.9,332.1,433,332.1,434.2L332.1,434.2z"/>
	<path class="st36" d="M355.8,434.2c0,1.2-1.1,2.2-2.2,2.2s-2.2-1.1-2.2-2.2c0-1.2,1.1-2.2,2.2-2.2
		C354.7,431.9,355.8,433,355.8,434.2L355.8,434.2z"/>
	<path class="st36" d="M214.3,460.4c0,1.2-1.1,2.2-2.2,2.2s-2.2-1.1-2.2-2.2s1.1-2.2,2.2-2.2S214.3,459.1,214.3,460.4L214.3,460.4z"
		/>
	<path class="st37" d="M237.9,460.4c0,1.2-1.1,2.2-2.2,2.2s-2.2-1.1-2.2-2.2s1.1-2.2,2.2-2.2C236.8,458.2,237.9,459.1,237.9,460.4
		L237.9,460.4z"/>
	<path class="st36" d="M261.3,460.4c0,1.2-1.1,2.2-2.2,2.2s-2.2-1.1-2.2-2.2s1.1-2.2,2.2-2.2S261.3,459.1,261.3,460.4L261.3,460.4z"
		/>
	<path class="st36" d="M284.9,460.4c0,1.2-1.1,2.2-2.2,2.2s-2.2-1.1-2.2-2.2s1.1-2.2,2.2-2.2C284,458.2,284.9,459.1,284.9,460.4
		L284.9,460.4z"/>
	<path class="st36" d="M308.5,460.4c0,1.2-1.1,2.2-2.2,2.2s-2.2-1.1-2.2-2.2s1.1-2.2,2.2-2.2S308.5,459.1,308.5,460.4L308.5,460.4z"
		/>
	<path class="st36" d="M332.1,460.4c0,1.2-1.1,2.2-2.2,2.2s-2.2-1.1-2.2-2.2s1.1-2.2,2.2-2.2S332.1,459.1,332.1,460.4L332.1,460.4z"
		/>
	<path class="st36" d="M355.8,460.4c0,1.2-1.1,2.2-2.2,2.2s-2.2-1.1-2.2-2.2s1.1-2.2,2.2-2.2S355.8,459.1,355.8,460.4L355.8,460.4z"
		/>
</g>
<g class="st9">
	<rect x="739.4" y="222.8" class="st36" width="5.8" height="19.5"/>
	<rect x="732.6" y="229.7" class="st36" width="19.4" height="5.8"/>
</g>
<g class="st9">
	<rect x="353.4" y="298.2" class="st36" width="3.7" height="12.7"/>
	<rect x="349" y="302.7" class="st36" width="12.7" height="3.7"/>
</g>
</svg>
